<?xml version="1.0" encoding="UTF-8"?>
<svg id="Layer_1" xmlns="http://www.w3.org/2000/svg" version="1.1" viewBox="0 0 647.9997 634.7658">
  <!-- Generator: Adobe Illustrator 29.2.1, SVG Export Plug-In . SVG Version: 2.1.0 Build 116)  -->
  <defs>
    <style>
      .st0 {
        fill: #007dff;
      }

      .st1 {
        fill: #000063;
      }
    </style>
  </defs>
  <path class="st1" d="M120.5772,487.6728l.007.006c.37.372,112.894,110.79,112.894,110.79,50.412,48.623,131.513,48.398,181.629-.694l-55.394-54.2561c-19.765,19.3631-51.807,19.3631-71.573.0011l-112.057-109.97c-18.772-19.428-18.556-50.028.876-69.061l126.946-124.353-55.38-54.25-127.664,125.056c-49.259,49.011-49.273,127.561-.284,176.731h0Z"/>
  <path class="st0" d="M458.2362,243.5188l-127.662-125.056c-50.414-48.623-131.513-48.398-181.627.691l-111.8952,109.627c-49.6363,49.382-49.4036,128.822.7104,177.912l55.3858-54.256c-19.766-19.361-19.76-50.753.004-70.116l112.386-109.566-.169-.166c19.828-18.431,51.097-18.223,70.541.825l126.945,124.353,55.381-54.248h0Z"/>
  <path class="st0" d="M610.2371,228.0698l-55.3889,54.259c19.7659,19.362,19.7689,50.754.003,70.117l-110.681,109.41-.509-.499c-19.768,19.357-51.811,19.357-71.577-.005l-126.945-124.354-55.379,54.25,127.668,125.06c50.085,48.308,130.406,48.285,180.592.128l112.927-110.446c49.636-49.384,49.405-128.828-.7101-177.92h0Z"/>
  <path class="st1" d="M527.3532,147.0928l-.0071-.006c-.3699-.371-112.894-110.7899-112.894-110.7899-50.412-48.6226-131.513-48.3985-181.628.6943l55.393,54.2556c19.766-19.363,51.807-19.363,71.573,0l112.057,109.969c18.772,19.428,18.555,50.028-.876,69.061l-126.946,124.353,55.38,54.25,127.664-125.056c49.259-49.011,49.273-127.561.2841-176.731h0Z"/>
</svg>