<?xml version="1.0" encoding="UTF-8"?>
<svg id="Layer_1" xmlns="http://www.w3.org/2000/svg" version="1.1" viewBox="0 0 719.9999 217.073">
  <!-- Generator: Adobe Illustrator 29.2.1, SVG Export Plug-In . SVG Version: 2.1.0 Build 116)  -->
  <defs>
    <style>
      .st0 {
        fill: #007dff;
      }

      .st1 {
        fill: #000063;
      }
    </style>
  </defs>
  <path class="st0" d="M322.035,88.092c3.999-3.999,6-9.559,6-16.682v-7.024c0-1.7557-.878-2.6337-2.634-2.6337h-9.219c-1.66,0-2.488.878-2.488,2.6337v6.439c0,7.221-3.512,10.829-10.536,10.829h-12.731c-7.024,0-10.536-3.608-10.536-10.829V23.2669c0-7.2183,3.512-10.8286,10.536-10.8286h12.731c7.024,0,10.536,3.6103,10.536,10.8286v6.4386c0,1.756.828,2.634,2.488,2.634h9.219c1.756,0,2.634-.878,2.634-2.634v-7.024c0-7.2183-2.001-12.8041-6-16.755-4.001-3.951-9.562-5.9265-16.682-5.9265h-16.974c-7.221,0-12.804,1.9755-16.755,5.9265-3.951,3.9509-5.927,9.5367-5.927,16.755v48.7285c0,7.123,1.976,12.683,5.927,16.682,3.951,4.001,9.534,6,16.755,6h16.974c7.12,0,12.681-1.999,16.682-6h0ZM353.935,91.604l5.56-19.023h32.193l5.561,19.023c.194.976.462,1.635.805,1.976.341.343.951.512,1.829.512h10.39c1.463,0,1.998-.828,1.609-2.488L386.42,2.4876c-.391-1.6576-1.561-2.4876-3.5121-2.4876h-14.633c-1.854,0-3.025.83-3.512,2.4876l-25.462,89.1164c-.391,1.66.096,2.488,1.464,2.488h10.536c1.365,0,2.243-.828,2.634-2.488h0ZM375.885,14.0479l13.0229,46.8264h-26.486l12.877-46.8264h.586ZM478.7549,91.604v-7.609c0-1.756-.83-2.634-2.488-2.634h-33.949c-1.171,0-1.756-.487-1.756-1.463V2.4876c0-1.6576-.83-2.4876-2.488-2.4876h-9.219c-1.66,0-2.487.83-2.487,2.4876v89.1164c0,1.66.827,2.488,2.487,2.488h47.412c1.658,0,2.488-.828,2.488-2.488h0ZM554.408,1.6097l-20.194,56.4843h-.731l-20.048-56.4843c-.489-1.0724-1.269-1.6097-2.3411-1.6097h-16.39c-1.6591,0-2.487.83-2.487,2.4876v89.1164c0,1.66.8279,2.488,2.487,2.488h8.9269c.974,0,1.6321-.169,1.975-.512.341-.341.512-1,.512-1.976V17.5599h.586l19.462,53.7041c.585,1.562,1.61,2.341,3.073,2.341h9.365c1.5601,0,2.634-.779,3.22-2.341l19.023-53.5578h.5851v73.8978c0,1.66.8279,2.488,2.4879,2.488h9.072c1.658,0,2.488-.828,2.488-2.488V2.4876c0-1.6576-.83-2.4876-2.488-2.4876h-16.389c-1.269,0-1.9999.5373-2.195,1.6097h0Z"/>
  <path class="st1" d="M282.9289,216.277v-2.435c0-.562-.265-.843-.796-.843h-10.864c-.374,0-.561-.156-.561-.468v-24.771c0-.531-.266-.796-.796-.796h-2.951c-.531,0-.796.265-.796.796v28.517c0,.531.265.7961.796.7961h15.172c.531,0,.796-.265.796-.7961h0ZM289.719,216.277l1.779-6.087h10.302l1.78,6.087c.062.313.147.523.257.632.109.11.304.164.585.164h3.325c.468,0,.64-.265.515-.7961l-8.148-28.517c-.125-.531-.499-.796-1.123-.796h-4.683c-.593,0-.968.265-1.1241.796l-8.1479,28.517c-.125.531.031.7961.469.7961h3.371c.437,0,.718-.265.843-.7961h0ZM296.743,191.459l4.167,14.985h-8.475l4.121-14.985h.187ZM317.393,216.277v-20.088h.187l11.238,20.135c.312.5.718.749,1.218.749h2.529c.53,0,.796-.265.796-.7961v-28.517c0-.531-.266-.796-.796-.796h-2.904c-.531,0-.796.265-.796.796v20.088h-.187l-11.332-20.369c-.187-.343-.531-.515-1.03-.515h-2.622c-.532,0-.796.265-.796.796v28.517c0,.531.2639.7961.796.7961h2.903c.5301,0,.7961-.265.7961-.7961h0ZM357.335,215.153c1.28-1.279,1.92-3.059,1.92-5.338v-7.867c0-.655-.327-.983-.983-.983h-7.867c-.531,0-.796.265-.796.796v2.388c0,.531.265.796.796.796h3.793c.343,0,.515.157.515.468v4.215c0,2.31-1.1241,3.465-3.371,3.465h-3.7c-2.247,0-3.371-1.155-3.371-3.465v-15.219c0-2.31,1.124-3.465,3.371-3.465h3.7c2.247,0,3.371,1.155,3.371,3.465v1.499c0,.562.265.843.796.843h2.95c.5309,0,.796-.281.796-.843v-1.686c0-2.31-.632-4.097-1.896-5.362-1.264-1.264-3.052-1.896-5.362-1.896h-5.01c-2.311,0-4.098.632-5.362,1.896-1.264,1.265-1.896,3.052-1.896,5.362v15.593c0,2.279.632,4.059,1.896,5.338,1.264,1.281,3.051,1.92,5.362,1.92h5.01c2.279,0,4.058-.639,5.338-1.92h0ZM380.5609,187.76v21.868c0,2.31-1.14,3.465-3.418,3.465h-3.84c-2.247,0-3.371-1.155-3.371-3.465v-21.868c0-.531-.266-.796-.7961-.796h-2.95c-.532,0-.796.265-.796.796v22.055c0,2.279.6389,4.059,1.919,5.338,1.28,1.281,3.059,1.92,5.339,1.92h5.197c2.279,0,4.066-.639,5.362-1.92,1.295-1.279,1.943-3.059,1.943-5.338v-22.102c0-.499-.281-.749-.843-.749h-2.95c-.531,0-.796.265-.796.796h0ZM394.1869,216.277l1.78-6.087h10.302l1.779,6.087c.062.313.148.523.258.632.109.11.304.164.585.164h3.325c.468,0,.639-.265.515-.7961l-8.148-28.517c-.125-.531-.5-.796-1.124-.796h-4.683c-.593,0-.968.265-1.123.796l-8.148,28.517c-.125.531.03.7961.468.7961h3.371c.437,0,.718-.265.843-.7961h0ZM401.2109,191.459l4.168,14.985h-8.476l4.121-14.985h.187ZM434.5039,215.153c1.28-1.279,1.92-3.059,1.92-5.338v-7.867c0-.655-.3271-.983-.983-.983h-7.867c-.531,0-.796.265-.796.796v2.388c0,.531.265.796.796.796h3.793c.343,0,.515.157.515.468v4.215c0,2.31-1.124,3.465-3.371,3.465h-3.7c-2.247,0-3.371-1.155-3.371-3.465v-15.219c0-2.31,1.124-3.465,3.371-3.465h3.7c2.247,0,3.371,1.155,3.371,3.465v1.499c0,.562.265.843.7961.843h2.95c.531,0,.796-.281.796-.843v-1.686c0-2.31-.632-4.097-1.896-5.362-1.264-1.264-3.052-1.896-5.362-1.896h-5.01c-2.311,0-4.098.632-5.362,1.896-1.264,1.265-1.896,3.052-1.896,5.362v15.593c0,2.279.632,4.059,1.896,5.338,1.264,1.281,3.051,1.92,5.362,1.92h5.01c2.279,0,4.058-.639,5.338-1.92h0ZM459.322,216.277v-2.388c0-.53-.25-.796-.749-.796h-10.676c-.375,0-.562-.171-.562-.515v-8.335c0-.312.187-.469.562-.469h9.037c.562,0,.843-.264.843-.796v-2.388c0-.53-.281-.796-.843-.796h-9.037c-.375,0-.562-.156-.562-.468v-7.914c0-.311.187-.468.562-.468h10.676c.499,0,.749-.265.749-.796v-2.388c0-.531-.25-.796-.749-.796h-14.984c-.531,0-.796.265-.796.796v28.517c0,.531.265.7961.796.7961h14.984c.499,0,.749-.265.749-.7961h0ZM496.3149,187.479l-6.462,18.075h-.235l-6.415-18.075c-.156-.343-.406-.515-.749-.515h-5.245c-.531,0-.796.265-.796.796v28.517c0,.531.265.7961.796.7961h2.8571c.312,0,.522-.054.632-.164.1091-.109.164-.319.164-.632v-23.694h.1871l6.2279,17.185c.187.5.515.749.984.749h2.996c.499,0,.843-.249,1.031-.749l6.087-17.138h.187v23.647c0,.531.265.7961.796.7961h2.904c.53,0,.796-.265.796-.7961v-28.517c0-.531-.2661-.796-.796-.796h-5.2449c-.4061,0-.64.172-.7021.515h0ZM513.9679,209.628v-15.219c0-2.31,1.124-3.465,3.372-3.465h4.073c2.279,0,3.4189,1.155,3.4189,3.465v15.219c0,2.31-1.14,3.465-3.4189,3.465h-4.073c-2.248,0-3.372-1.155-3.372-3.465h0ZM527.5009,215.153c1.28-1.279,1.92-3.059,1.92-5.338v-15.593c0-2.31-.64-4.097-1.92-5.362-1.281-1.264-3.075-1.896-5.3849-1.896h-5.432c-2.3111,0-4.097.632-5.3621,1.896-1.264,1.265-1.896,3.052-1.896,5.362v15.593c0,2.279.632,4.059,1.896,5.338,1.265,1.281,3.051,1.92,5.3621,1.92h5.432c2.3099,0,4.1039-.639,5.3849-1.92h0ZM540.2839,212.578v-21.166c0-.311.171-.468.515-.468h6.602c2.248,0,3.372,1.155,3.372,3.465v15.219c0,2.31-1.124,3.465-3.372,3.465h-6.602c-.344,0-.515-.171-.515-.515h0ZM536.538,217.073h11.519c2.278,0,4.066-.639,5.362-1.92,1.295-1.279,1.9431-3.059,1.9431-5.338v-15.593c0-2.31-.6481-4.097-1.9431-5.362-1.296-1.264-3.084-1.896-5.362-1.896h-11.519c-.5309,0-.796.265-.796.796v28.517c0,.531.265.7961.796.7961h0ZM578.2599,216.277v-2.388c0-.53-.251-.796-.749-.796h-10.677c-.374,0-.562-.171-.562-.515v-8.335c0-.312.188-.469.562-.469h9.038c.562,0,.8431-.264.8431-.796v-2.388c0-.53-.2811-.796-.8431-.796h-9.038c-.374,0-.562-.156-.562-.468v-7.914c0-.311.188-.468.562-.468h10.677c.498,0,.749-.265.749-.796v-2.388c0-.531-.251-.796-.749-.796h-14.985c-.531,0-.796.265-.796.796v28.517c0,.531.265.7961.796.7961h14.985c.498,0,.749-.265.749-.7961h0ZM600.9699,216.277v-2.435c0-.562-.2649-.843-.796-.843h-10.863c-.375,0-.562-.156-.562-.468v-24.771c0-.531-.2661-.796-.796-.796h-2.95c-.532,0-.797.265-.797.796v28.517c0,.531.265.7961.797.7961h15.171c.5311,0,.796-.265.796-.7961h0Z"/>
  <path class="st1" d="M283.725,165.4c1.28-1.279,1.92-3.059,1.92-5.338v-2.248c0-.562-.2809-.843-.843-.843h-2.95c-.531,0-.796.281-.796.843v2.061c0,2.31-1.124,3.465-3.371,3.465h-4.074c-2.248,0-3.372-1.155-3.372-3.465v-15.219c0-2.31,1.124-3.465,3.372-3.465h4.074c2.247,0,3.371,1.155,3.371,3.465v2.06c0,.562.265.843.796.843h2.95c.562,0,.843-.281.843-.843v-2.247c0-2.31-.64-4.097-1.92-5.362-1.28-1.264-3.0591-1.896-5.338-1.896h-5.432c-2.31,0-4.097.632-5.361,1.896-1.265,1.265-1.897,3.052-1.897,5.362v15.593c0,2.279.632,4.059,1.897,5.338,1.264,1.281,3.051,1.92,5.361,1.92h5.432c2.279,0,4.058-.639,5.338-1.92h0ZM295.525,159.875v-15.219c0-2.31,1.124-3.465,3.372-3.465h4.074c2.278,0,3.418,1.155,3.418,3.465v15.219c0,2.31-1.14,3.465-3.418,3.465h-4.074c-2.248,0-3.372-1.155-3.372-3.465h0ZM309.058,165.4c1.28-1.279,1.92-3.059,1.92-5.338v-15.593c0-2.31-.64-4.097-1.92-5.362-1.28-1.264-3.075-1.896-5.385-1.896h-5.432c-2.31,0-4.097.632-5.361,1.896-1.265,1.265-1.897,3.052-1.897,5.362v15.593c0,2.279.632,4.059,1.897,5.338,1.264,1.281,3.051,1.92,5.361,1.92h5.432c2.31,0,4.105-.639,5.385-1.92h0ZM337.2,137.726l-6.462,18.075h-.234l-6.415-18.075c-.157-.343-.4059-.515-.749-.515h-5.245c-.531,0-.796.265-.796.796v28.517c0,.531.265.796.796.796h2.856c.312,0,.523-.054.633-.164.109-.109.163-.32.163-.632v-23.694h.188l6.228,17.185c.187.5.515.749.983.749h2.997c.499,0,.843-.249,1.03-.749l6.088-17.138h.187v23.647c0,.531.265.796.796.796h2.903c.531,0,.796-.265.796-.796v-28.517c0-.531-.265-.796-.796-.796h-5.244c-.407,0-.641.172-.703.515h0ZM370.681,137.726l-6.462,18.075h-.234l-6.416-18.075c-.156-.343-.406-.515-.749-.515h-5.244c-.531,0-.796.265-.796.796v28.517c0,.531.265.796.796.796h2.856c.312,0,.522-.054.632-.164.109-.109.164-.32.164-.632v-23.694h.187l6.228,17.185c.188.5.515.749.984.749h2.997c.499,0,.842-.249,1.03-.749l6.087-17.138h.188v23.647c0,.531.264.796.796.796h2.903c.53,0,.796-.265.796-.796v-28.517c0-.531-.266-.796-.796-.796h-5.245c-.406,0-.64.172-.702.515h0ZM388.334,159.875v-15.219c0-2.31,1.124-3.465,3.372-3.465h4.074c2.278,0,3.418,1.155,3.418,3.465v15.219c0,2.31-1.14,3.465-3.418,3.465h-4.074c-2.248,0-3.372-1.155-3.372-3.465h0ZM401.867,165.4c1.28-1.279,1.92-3.059,1.92-5.338v-15.593c0-2.31-.64-4.097-1.92-5.362-1.28-1.264-3.075-1.896-5.385-1.896h-5.432c-2.31,0-4.097.632-5.361,1.896-1.265,1.265-1.897,3.052-1.897,5.362v15.593c0,2.279.632,4.059,1.897,5.338,1.264,1.281,3.051,1.92,5.361,1.92h5.432c2.31,0,4.105-.639,5.385-1.92h0ZM414.603,166.524v-20.088h.188l11.238,20.135c.312.5.718.749,1.217.749h2.529c.53,0,.796-.265.796-.796v-28.517c0-.531-.266-.796-.796-.796h-2.903c-.531,0-.796.265-.796.796v20.088h-.188l-11.332-20.369c-.187-.343-.531-.515-1.03-.515h-2.622c-.531,0-.796.265-.796.796v28.517c0,.531.265.796.796.796h2.903c.531,0,.796-.265.796-.796h0ZM451.033,166.524l1.78-6.087h10.302l1.779,6.087c.062.312.1479.523.258.632.109.11.304.164.585.164h3.325c.468,0,.639-.265.515-.796l-8.148-28.517c-.125-.531-.5-.796-1.124-.796h-4.683c-.593,0-.968.265-1.123.796l-8.148,28.517c-.125.531.031.796.468.796h3.372c.436,0,.717-.265.842-.796h0ZM458.057,141.706l4.168,14.985h-8.476l4.121-14.985h.187ZM478.754,166.524v-10.302c0-.311.187-.468.562-.468h4.73l5.01,10.77c.218.531.702.796,1.452.796h2.903c.749,0,.952-.312.609-.936l-5.198-10.958v-.187c2.965-.937,4.448-3.2,4.448-6.79v-3.933c0-2.279-.648-4.066-1.943-5.362-1.296-1.295-3.0829-1.943-5.3619-1.943h-10.9571c-.531,0-.796.265-.796.796v28.517c0,.531.265.796.796.796h2.95c.5309,0,.796-.265.796-.796h0ZM478.754,151.54v-9.881c0-.311.171-.468.515-.468h5.947c2.31,0,3.465,1.155,3.465,3.465v3.934c0,2.279-1.155,3.418-3.465,3.418h-5.947c-.344,0-.515-.156-.515-.468h0ZM517.1509,165.4c1.28-1.279,1.92-3.059,1.92-5.338v-2.248c0-.562-.281-.843-.843-.843h-2.95c-.5311,0-.7961.281-.7961.843v2.061c0,2.31-1.123,3.465-3.371,3.465h-4.074c-2.248,0-3.372-1.155-3.372-3.465v-15.219c0-2.31,1.124-3.465,3.372-3.465h4.074c2.248,0,3.371,1.155,3.371,3.465v2.06c0,.562.265.843.7961.843h2.95c.562,0,.843-.281.843-.843v-2.247c0-2.31-.64-4.097-1.92-5.362-1.28-1.264-3.059-1.896-5.338-1.896h-5.432c-2.31,0-4.097.632-5.361,1.896-1.265,1.265-1.897,3.052-1.897,5.362v15.593c0,2.279.632,4.059,1.897,5.338,1.264,1.281,3.051,1.92,5.361,1.92h5.432c2.279,0,4.058-.639,5.338-1.92h0ZM529.4199,166.524v-11.847c0-.312.1871-.468.5621-.468h9.8799c.312,0,.468.156.468.468v11.847c0,.531.265.796.796.796h2.997c.5311,0,.7961-.265.7961-.796v-28.517c0-.531-.265-.796-.7961-.796h-2.997c-.531,0-.796.265-.796.796v11.706c0,.313-.156.469-.468.469h-9.8799c-.375,0-.5621-.156-.5621-.469v-11.706c0-.531-.266-.796-.796-.796h-2.95c-.532,0-.797.265-.797.796v28.517c0,.531.265.796.797.796h2.95c.53,0,.796-.265.796-.796h0ZM555.736,137.211h-2.95c-.532,0-.796.265-.796.796v28.517c0,.531.264.796.796.796h2.95c.53,0,.796-.265.796-.796v-28.517c0-.531-.266-.796-.796-.796h0ZM572.6399,166.524v-24.865c0-.311.171-.468.515-.468h5.9c.5621,0,.8431-.265.8431-.796v-2.388c0-.531-.281-.796-.8431-.796h-17.373c-.562,0-.843.265-.843.796v2.388c0,.531.2811.796.843.796h5.9c.312,0,.4691.157.4691.468v24.865c0,.531.28.796.842.796h2.95c.531,0,.797-.265.797-.796h0ZM600.454,166.524v-2.388c0-.531-.2501-.796-.749-.796h-10.677c-.374,0-.562-.171-.562-.515v-8.335c0-.312.1879-.469.562-.469h9.038c.562,0,.8431-.264.8431-.796v-2.388c0-.53-.2811-.796-.8431-.796h-9.038c-.374,0-.562-.156-.562-.468v-7.914c0-.311.1879-.468.562-.468h10.677c.499,0,.749-.265.749-.796v-2.388c0-.531-.2501-.796-.749-.796h-14.985c-.5309,0-.796.265-.796.796v28.517c0,.531.265.796.796.796h14.985c.499,0,.749-.265.749-.796h0ZM623.961,165.4c1.2789-1.279,1.9199-3.059,1.9199-5.338v-2.248c0-.562-.281-.843-.843-.843h-2.95c-.532,0-.796.281-.796.843v2.061c0,2.31-1.1239,3.465-3.3719,3.465h-4.074c-2.248,0-3.3711-1.155-3.3711-3.465v-15.219c0-2.31,1.123-3.465,3.3711-3.465h4.074c2.248,0,3.3719,1.155,3.3719,3.465v2.06c0,.562.264.843.796.843h2.95c.562,0,.843-.281.843-.843v-2.247c0-2.31-.641-4.097-1.9199-5.362-1.2811-1.264-3.0601-1.896-5.3391-1.896h-5.431c-2.311,0-4.098.632-5.3621,1.896-1.264,1.265-1.897,3.052-1.897,5.362v15.593c0,2.279.633,4.059,1.897,5.338,1.264,1.281,3.051,1.92,5.3621,1.92h5.431c2.279,0,4.058-.639,5.3391-1.92h0ZM640.7239,166.524v-24.865c0-.311.171-.468.515-.468h5.9c.562,0,.843-.265.843-.796v-2.388c0-.531-.281-.796-.843-.796h-17.3719c-.562,0-.8431.265-.8431.796v2.388c0,.531.2811.796.8431.796h5.8999c.312,0,.468.157.468.468v24.865c0,.531.281.796.843.796h2.95c.531,0,.796-.265.796-.796h0ZM666.947,138.007v21.868c0,2.31-1.14,3.465-3.4189,3.465h-3.8401c-2.2469,0-3.371-1.155-3.371-3.465v-21.868c0-.531-.266-.796-.796-.796h-2.95c-.531,0-.796.265-.796.796v22.055c0,2.279.639,4.059,1.92,5.338,1.279,1.281,3.059,1.92,5.338,1.92h5.1981c2.278,0,4.0649-.639,5.361-1.92,1.295-1.279,1.9429-3.059,1.9429-5.338v-22.102c0-.499-.28-.749-.842-.749h-2.95c-.532,0-.796.265-.796.796h0ZM682.6329,166.524v-10.302c0-.311.1871-.468.5621-.468h4.7289l5.011,10.77c.2181.531.702.796,1.451.796h2.904c.749,0,.952-.312.608-.936l-5.197-10.958v-.187c2.965-.937,4.4481-3.2,4.4481-6.79v-3.933c0-2.279-.6481-4.066-1.9431-5.362-1.296-1.295-3.0829-1.943-5.362-1.943h-10.957c-.5309,0-.796.265-.796.796v28.517c0,.531.265.796.796.796h2.95c.53,0,.796-.265.796-.796h0ZM682.6329,151.54v-9.881c0-.311.171-.468.5151-.468h5.9469c2.3101,0,3.465,1.155,3.465,3.465v3.934c0,2.279-1.155,3.418-3.465,3.418h-5.9469c-.3441,0-.5151-.156-.5151-.468h0ZM719.9999,166.524v-2.388c0-.531-.25-.796-.749-.796h-10.677c-.374,0-.561-.171-.561-.515v-8.335c0-.312.187-.469.561-.469h9.038c.5621,0,.8431-.264.8431-.796v-2.388c0-.53-.281-.796-.8431-.796h-9.038c-.374,0-.561-.156-.561-.468v-7.914c0-.311.187-.468.561-.468h10.677c.499,0,.749-.265.749-.796v-2.388c0-.531-.25-.796-.749-.796h-14.985c-.531,0-.796.265-.796.796v28.517c0,.531.265.796.796.796h14.985c.499,0,.749-.265.749-.796h0Z"/>
  <path class="st1" d="M40.8503,166.229l.0024.002c.1254.126,38.2472,37.535,38.2472,37.535,17.079,16.473,44.555,16.397,61.534-.235l-18.767-18.382c-6.696,6.56-17.551,6.56-24.248,0l-37.9638-37.256c-6.3597-6.582-6.2863-16.949.2968-23.397l43.008-42.13-18.762-18.3794-43.2515,42.3684c-16.6886,16.604-16.6933,43.216-.0961,59.874h0Z"/>
  <path class="st0" d="M155.2459,83.512l-43.251-42.3672c-17.08-16.4729-44.555-16.397-61.5333.2339L12.5528,78.52c-16.8162,16.73-16.7375,43.643.2406,60.274l18.7642-18.381c-6.6966-6.559-6.6947-17.195.0014-23.755l38.0749-37.1199-.057-.0562c6.717-6.2439,17.311-6.1735,23.898.2796l43.008,42.1295,18.763-18.379h0Z"/>
  <path class="st0" d="M206.742,78.279l-18.765,18.382c6.697,6.56,6.698,17.195.001,23.755l-37.497,37.067-.173-.169c-6.697,6.558-17.553,6.558-24.249-.002l-43.008-42.1299-18.762,18.38,43.252,42.369c16.969,16.366,44.181,16.358,61.183.043l38.259-37.418c16.816-16.731,16.738-43.646-.241-60.277h0Z"/>
  <path class="st1" d="M178.6619,50.8445l-.002-.0025c-.126-.1257-38.248-37.5341-38.248-37.5341-17.079-16.4732-44.555-16.397-61.534.2351l18.767,18.3811c6.697-6.5598,17.552-6.5598,24.248,0l37.964,37.2559c6.36,6.583,6.287,16.949-.297,23.398l-43.008,42.129,18.763,18.38,43.251-42.368c16.688-16.604,16.693-43.216.096-59.8745h0Z"/>
</svg>