<?xml version="1.0" encoding="UTF-8"?>
<svg id="Layer_1" data-name="Layer 1" xmlns="http://www.w3.org/2000/svg" viewBox="0 0 1810.99 517.32">
  <defs>
    <style>
      .cls-1 {
        fill: #007dff;
      }

      .cls-2 {
        fill: #000063;
      }
    </style>
  </defs>
  <path class="cls-1" d="M852.26,427.62c15.13-15.13,22.7-36.16,22.7-63.1v-26.57c0-6.64-3.32-9.96-9.96-9.96h-34.87c-6.28,0-9.41,3.32-9.41,9.96v24.36c0,27.32-13.29,40.96-39.86,40.96h-48.16c-26.57,0-39.86-13.65-39.86-40.96v-179.9c0-27.31,13.29-40.96,39.86-40.96h48.16c26.57,0,39.86,13.66,39.86,40.96v24.36c0,6.64,3.13,9.96,9.41,9.96h34.87c6.64,0,9.96-3.32,9.96-9.96v-26.57c0-27.31-7.57-48.43-22.7-63.38-15.13-14.95-36.17-22.42-63.1-22.42h-64.21c-27.32,0-48.43,7.47-63.38,22.42-14.95,14.95-22.42,36.08-22.42,63.38v184.33c0,26.94,7.47,47.98,22.42,63.1,14.95,15.13,36.06,22.7,63.38,22.7h64.21c26.93,0,47.97-7.56,63.1-22.7h0ZM972.93,440.9l21.03-71.96h121.78l21.04,71.96c.73,3.69,1.75,6.18,3.05,7.47,1.29,1.3,3.6,1.94,6.92,1.94h39.3c5.53,0,7.56-3.13,6.09-9.41l-96.32-337.11c-1.48-6.27-5.9-9.41-13.29-9.41h-55.35c-7.01,0-11.44,3.14-13.29,9.41l-96.32,337.11c-1.48,6.28.36,9.41,5.54,9.41h39.86c5.16,0,8.48-3.13,9.96-9.41h0ZM1055.96,147.53l49.26,177.13h-100.19l48.71-177.13h2.22ZM1445.1,440.9v-28.78c0-6.64-3.14-9.96-9.41-9.96h-128.42c-4.43,0-6.64-1.84-6.64-5.53V103.8c0-6.27-3.14-9.41-9.41-9.41h-34.87c-6.28,0-9.41,3.14-9.41,9.41v337.11c0,6.28,3.13,9.41,9.41,9.41h179.35c6.27,0,9.41-3.13,9.41-9.41h0ZM1731.28,100.47l-76.39,213.67h-2.77l-75.84-213.67c-1.85-4.06-4.8-6.09-8.86-6.09h-62c-6.28,0-9.41,3.14-9.41,9.41v337.11c0,6.28,3.13,9.41,9.41,9.41h33.77c3.68,0,6.17-.64,7.47-1.94,1.29-1.29,1.94-3.78,1.94-7.47V160.81h2.22l73.62,203.15c2.21,5.91,6.09,8.86,11.62,8.86h35.43c5.9,0,9.96-2.95,12.18-8.86l71.96-202.6h2.21v279.54c0,6.28,3.13,9.41,9.41,9.41h34.32c6.27,0,9.41-3.13,9.41-9.41V103.8c0-6.27-3.14-9.41-9.41-9.41h-62c-4.8,0-7.57,2.03-8.3,6.09h0Z"/>
  <path class="cls-2" d="M98.27,397.44h0c.3.31,92.01,90.3,92.01,90.3,41.08,39.63,107.18,39.44,148.02-.57l-45.15-44.22c-16.11,15.78-42.22,15.78-58.33,0l-91.32-89.62c-15.3-15.83-15.12-40.77.71-56.28l103.46-101.35-45.13-44.21-104.04,101.92c-40.15,39.94-40.16,103.96-.23,144.03h0Z"/>
  <path class="cls-1" d="M373.45,198.46l-104.04-101.92c-41.09-39.63-107.18-39.44-148.02.56L30.2,186.45c-40.45,40.24-40.26,104.99.58,144.99l45.14-44.22c-16.11-15.78-16.1-41.36,0-57.14l91.59-89.29-.14-.14c16.16-15.02,41.64-14.85,57.49.67l103.46,101.34,45.14-44.21h0Z"/>
  <path class="cls-1" d="M497.33,185.87l-45.14,44.22c16.11,15.78,16.11,41.36,0,57.14l-90.2,89.17-.42-.41c-16.11,15.78-42.22,15.78-58.33,0l-103.46-101.35-45.13,44.21,104.05,101.92c40.82,39.37,106.28,39.35,147.18.1l92.03-90.01c40.45-40.25,40.26-104.99-.58-145h0Z"/>
  <path class="cls-2" d="M429.78,119.88h0c-.3-.31-92.01-90.3-92.01-90.3-41.08-39.63-107.18-39.44-148.02.57l45.15,44.22c16.11-15.78,42.22-15.78,58.33,0l91.32,89.62c15.3,15.84,15.12,40.77-.71,56.29l-103.46,101.34,45.14,44.21,104.04-101.92c40.14-39.94,40.16-103.96.23-144.03h0Z"/>
</svg>