<?xml version="1.0" encoding="UTF-8"?>
<svg id="Layer_1" xmlns="http://www.w3.org/2000/svg" version="1.1" viewBox="0 0 617.7599 295.176">
  <!-- Generator: Adobe Illustrator 29.2.1, SVG Export Plug-In . SVG Version: 2.1.0 Build 116)  -->
  <path d="M76.6079,119.788c5.438-5.438,8.159-13,8.159-22.684v-9.552c0-2.387-1.194-3.581-3.582-3.581h-12.536c-2.257,0-3.383,1.194-3.383,3.581v8.756c0,9.818-4.7751,14.724-14.3263,14.724h-17.3115c-9.5512,0-14.3267-4.906-14.3267-14.724V31.6382c0-9.8154,4.7755-14.7247,14.3267-14.7247h17.3115c9.5512,0,14.3263,4.9093,14.3263,14.7247v8.7553c0,2.3878,1.126,3.5817,3.383,3.5817h12.536c2.388,0,3.582-1.1939,3.582-3.5817v-9.5512c0-9.8154-2.721-17.411-8.159-22.7835C71.1679,2.6863,63.6061,0,53.9243,0h-23.0819C21.0238,0,13.4314,2.6863,8.0588,8.0588,2.6863,13.4313,0,21.0269,0,30.8423v66.2617c0,9.684,2.6863,17.246,8.0588,22.684,5.3726,5.44,12.965,8.158,22.7836,8.158h23.0819c9.6818,0,17.2436-2.718,22.6836-8.158h0ZM119.9849,124.563l7.562-25.868h43.776l7.561,25.868c.264,1.328.628,2.223,1.095,2.686.463.467,1.293.697,2.487.697h14.128c1.989,0,2.717-1.126,2.188-3.383L164.1589,3.3827c-.531-2.2541-2.123-3.3827-4.775-3.3827h-19.898c-2.522,0-4.114,1.1286-4.776,3.3827l-34.623,121.1803c-.532,2.257.131,3.383,1.99,3.383h14.327c1.856,0,3.05-1.126,3.581-3.383h0ZM149.8329,19.1023l17.709,63.6747h-36.016l17.511-63.6747h.796ZM289.7149,124.563v-10.347c0-2.388-1.128-3.582-3.382-3.582h-46.164c-1.592,0-2.388-.662-2.388-1.989V3.3827c0-2.2541-1.129-3.3827-3.383-3.3827h-12.536c-2.257,0-3.382,1.1286-3.382,3.3827v121.1803c0,2.257,1.125,3.383,3.382,3.383h64.471c2.254,0,3.382-1.126,3.382-3.383h0ZM392.5889,2.1888l-27.46,76.8072h-.995L336.8739,2.1888c-.666-1.4582-1.726-2.1888-3.184-2.1888h-22.286c-2.257,0-3.383,1.1286-3.383,3.3827v121.1803c0,2.257,1.126,3.383,3.383,3.383h12.138c1.324,0,2.22-.23,2.686-.697.463-.463.696-1.358.696-2.686V23.8779h.796l26.465,73.0271c.796,2.123,2.189,3.183,4.179,3.183h12.735c2.12,0,3.581-1.06,4.377-3.183l25.868-72.8281h.796v100.4861c0,2.257,1.125,3.383,3.383,3.383h12.337c2.254,0,3.382-1.126,3.382-3.383V3.3827c0-2.2541-1.128-3.3827-3.382-3.3827h-22.286c-1.726,0-2.721.7306-2.985,2.1888h0Z"/>
  <path d="M23.4322,294.093v-3.311c0-.764-.3611-1.1461-1.0824-1.1461H7.5773c-.5094,0-.7641-.2119-.7641-.637v-33.684c0-.721-.3611-1.082-1.0825-1.082H1.7193c-.7224,0-1.0825.361-1.0825,1.082v38.778c0,.722.3601,1.083,1.0825,1.083h20.6305c.7213,0,1.0824-.361,1.0824-1.083h0ZM32.6648,294.093l2.4197-8.278h14.0083l2.4197,8.278c.0845.425.2009.711.3502.86.1482.149.4139.223.7959.223h4.5209c.6367,0,.8696-.361.7004-1.083l-11.0793-38.778c-.1702-.721-.6796-1.082-1.5282-1.082h-6.3675c-.8068,0-1.3162.361-1.5282,1.082l-11.0793,38.778c-.1701.722.0418,1.083.6367,1.083h4.5846c.594,0,.976-.361,1.1461-1.083h0ZM42.216,260.346l5.667,20.376h-11.525l5.6033-20.376h.2547ZM70.2959,294.093v-27.316h.255l15.281,27.38c.424.679.976,1.019,1.656,1.019h3.438c.722,0,1.083-.361,1.083-1.083v-38.778c0-.721-.361-1.082-1.083-1.082h-3.947c-.723,0-1.083.361-1.083,1.082v27.317h-.255l-15.409-27.699c-.255-.466-.722-.7-1.401-.7h-3.565c-.723,0-1.083.361-1.083,1.082v38.778c0,.722.36,1.083,1.083,1.083h3.947c.722,0,1.083-.361,1.083-1.083h0ZM124.6099,292.565c1.74-1.74,2.61-4.16,2.61-7.259v-10.697c0-.892-.445-1.337-1.337-1.337h-10.697c-.722,0-1.083.361-1.083,1.082v3.247c0,.723.361,1.0829,1.083,1.0829h5.157c.467,0,.701.213.701.6371v5.7299c0,3.142-1.528,4.712-4.585,4.712h-5.03c-3.056,0-4.585-1.57-4.585-4.712v-20.694c0-3.141,1.529-4.712,4.585-4.712h5.03c3.057,0,4.585,1.571,4.585,4.712v2.038c0,.764.36,1.146,1.082,1.146h4.012c.721,0,1.082-.382,1.082-1.146v-2.293c0-3.14-.859-5.571-2.578-7.29-1.72-1.719-4.15-2.579-7.291-2.579h-6.813c-3.142,0-5.572.86-7.291,2.579-1.719,1.719-2.579,4.15-2.579,7.29v21.204c0,3.099.86,5.519,2.579,7.259,1.719,1.741,4.149,2.611,7.291,2.611h6.813c3.098,0,5.518-.87,7.259-2.611h0ZM156.1919,255.315v29.736c0,3.142-1.55,4.712-4.648,4.712h-5.221c-3.057,0-4.585-1.57-4.585-4.712v-29.736c0-.721-.361-1.082-1.082-1.082h-4.012c-.722,0-1.082.361-1.082,1.082v29.991c0,3.099.869,5.519,2.61,7.259,1.74,1.741,4.16,2.611,7.259,2.611h7.068c3.098,0,5.529-.87,7.291-2.611,1.761-1.74,2.642-4.16,2.642-7.259v-30.054c0-.679-.382-1.019-1.146-1.019h-4.011c-.723,0-1.083.361-1.083,1.082h0ZM174.7209,294.093l2.419-8.278h14.009l2.419,8.278c.085.425.201.711.351.86.148.149.414.223.796.223h4.521c.636,0,.869-.361.7-1.083l-11.079-38.778c-.171-.721-.68-1.082-1.529-1.082h-6.367c-.807,0-1.316.361-1.528,1.082l-11.08,38.778c-.17.722.042,1.083.637,1.083h4.585c.594,0,.976-.361,1.146-1.083h0ZM184.2719,260.346l5.667,20.376h-11.525l5.603-20.376h.255ZM229.5439,292.565c1.74-1.74,2.61-4.16,2.61-7.259v-10.697c0-.892-.445-1.337-1.337-1.337h-10.697c-.722,0-1.082.361-1.082,1.082v3.247c0,.723.36,1.0829,1.082,1.0829h5.158c.4659,0,.7.213.7.6371v5.7299c0,3.142-1.528,4.712-4.584,4.712h-5.031c-3.056,0-4.584-1.57-4.584-4.712v-20.694c0-3.141,1.528-4.712,4.584-4.712h5.031c3.056,0,4.584,1.571,4.584,4.712v2.038c0,.764.36,1.146,1.083,1.146h4.011c.721,0,1.082-.382,1.082-1.146v-2.293c0-3.14-.859-5.571-2.578-7.29-1.72-1.719-4.15-2.579-7.291-2.579h-6.813c-3.142,0-5.572.86-7.291,2.579-1.719,1.719-2.579,4.15-2.579,7.29v21.204c0,3.099.86,5.519,2.579,7.259,1.719,1.741,4.149,2.611,7.291,2.611h6.813c3.098,0,5.518-.87,7.259-2.611h0ZM263.2909,294.093v-3.247c0-.722-.34-1.083-1.019-1.083h-14.517c-.51,0-.764-.233-.764-.7v-11.334c0-.424.254-.637.764-.637h12.289c.764,0,1.146-.36,1.146-1.082v-3.248c0-.721-.382-1.082-1.146-1.082h-12.289c-.51,0-.764-.212-.764-.637v-10.761c0-.424.254-.637.764-.637h14.517c.679,0,1.019-.36,1.019-1.082v-3.248c0-.721-.34-1.082-1.019-1.082h-20.375c-.723,0-1.083.361-1.083,1.082v38.778c0,.722.36,1.083,1.083,1.083h20.375c.679,0,1.019-.361,1.019-1.083h0ZM313.5929,254.933l-8.787,24.579h-.318l-8.724-24.579c-.213-.466-.552-.7-1.018-.7h-7.132c-.722,0-1.082.361-1.082,1.082v38.778c0,.722.36,1.083,1.082,1.083h3.8839c.424,0,.711-.074.86-.223.148-.149.223-.435.223-.86v-32.219h.254l8.469,23.368c.255.68.701,1.019,1.337,1.019h4.075c.679,0,1.147-.339,1.401-1.019l8.278-23.304h.255v32.155c0,.722.36,1.083,1.082,1.083h3.948c.721,0,1.082-.361,1.082-1.083v-38.778c0-.721-.361-1.082-1.082-1.082h-7.132c-.552,0-.87.234-.955.7h0ZM337.5979,285.051v-20.694c0-3.141,1.528-4.712,4.585-4.712h5.54c3.0981,0,4.648,1.571,4.648,4.712v20.694c0,3.142-1.55,4.712-4.648,4.712h-5.54c-3.057,0-4.585-1.57-4.585-4.712h0ZM355.9999,292.565c1.74-1.74,2.611-4.16,2.611-7.259v-21.204c0-3.14-.871-5.571-2.611-7.29-1.741-1.719-4.181-2.579-7.322-2.579h-7.387c-3.142,0-5.571.86-7.29,2.579-1.72,1.719-2.579,4.15-2.579,7.29v21.204c0,3.099.859,5.519,2.579,7.259,1.719,1.741,4.148,2.611,7.29,2.611h7.387c3.141,0,5.581-.87,7.322-2.611h0ZM373.3819,289.063v-28.781c0-.424.233-.637.701-.637h8.978c3.056,0,4.585,1.571,4.585,4.712v20.694c0,3.142-1.529,4.712-4.585,4.712h-8.978c-.468,0-.701-.233-.701-.7h0ZM368.2889,295.176h15.663c3.099,0,5.529-.87,7.291-2.611,1.761-1.74,2.643-4.16,2.643-7.259v-21.204c0-3.14-.882-5.571-2.643-7.29-1.762-1.719-4.192-2.579-7.291-2.579h-15.663c-.723,0-1.083.361-1.083,1.082v38.778c0,.722.36,1.083,1.083,1.083h0ZM425.0219,294.093v-3.247c0-.722-.34-1.083-1.019-1.083h-14.518c-.509,0-.764-.233-.764-.7v-11.334c0-.424.255-.637.764-.637h12.29c.764,0,1.146-.36,1.146-1.082v-3.248c0-.721-.382-1.082-1.146-1.082h-12.29c-.509,0-.764-.212-.764-.637v-10.761c0-.424.255-.637.764-.637h14.518c.679,0,1.019-.36,1.019-1.082v-3.248c0-.721-.34-1.082-1.019-1.082h-20.376c-.722,0-1.082.361-1.082,1.082v38.778c0,.722.36,1.083,1.082,1.083h20.376c.679,0,1.019-.361,1.019-1.083h0ZM455.9039,294.093v-3.311c0-.764-.361-1.1461-1.083-1.1461h-14.772c-.51,0-.764-.2119-.764-.637v-33.684c0-.721-.361-1.082-1.083-1.082h-4.011c-.722,0-1.083.361-1.083,1.082v38.778c0,.722.361,1.083,1.083,1.083h20.63c.722,0,1.083-.361,1.083-1.083h0Z"/>
  <path d="M24.5147,224.911c1.7401-1.74,2.6107-4.16,2.6107-7.259v-3.056c0-.765-.3821-1.147-1.1462-1.147h-4.0115c-.7223,0-1.0824.382-1.0824,1.147v2.801c0,3.142-1.5282,4.712-4.5846,4.712h-5.5397c-3.0564,0-4.5845-1.57-4.5845-4.712v-20.694c0-3.141,1.5281-4.712,4.5845-4.712h5.5397c3.0564,0,4.5846,1.571,4.5846,4.712v2.802c0,.764.3601,1.146,1.0824,1.146h4.0115c.7641,0,1.1462-.382,1.1462-1.146v-3.057c0-3.141-.8706-5.571-2.6107-7.29-1.7411-1.72-4.1607-2.579-7.2589-2.579h-7.3862c-3.142,0-5.5715.859-7.2907,2.579-1.7193,1.719-2.5789,4.149-2.5789,7.29v21.204c0,3.099.8596,5.519,2.5789,7.259,1.7192,1.741,4.1487,2.611,7.2907,2.611h7.3862c3.0982,0,5.5178-.87,7.2589-2.611h0ZM40.5602,217.397v-20.694c0-3.141,1.5282-4.712,4.5846-4.712h5.5397c3.0981,0,4.6482,1.571,4.6482,4.712v20.694c0,3.142-1.5501,4.712-4.6482,4.712h-5.5397c-3.0564,0-4.5846-1.57-4.5846-4.712h0ZM58.9622,224.911c1.74-1.74,2.6106-4.16,2.6106-7.259v-21.204c0-3.141-.8706-5.571-2.6106-7.29-1.7412-1.72-4.1817-2.579-7.3226-2.579h-7.3862c-3.142,0-5.5716.859-7.2908,2.579-1.7192,1.719-2.5788,4.149-2.5788,7.29v21.204c0,3.099.8596,5.519,2.5788,7.259,1.7192,1.741,4.1488,2.611,7.2908,2.611h7.3862c3.1409,0,5.5814-.87,7.3226-2.611h0ZM97.2299,187.279l-8.787,24.579h-.319l-8.723-24.579c-.213-.466-.552-.7-1.019-.7h-7.131c-.723,0-1.083.361-1.083,1.082v38.778c0,.722.36,1.083,1.083,1.083h3.884c.424,0,.71-.074.859-.223.149-.149.223-.435.223-.86v-32.219h.255l8.469,23.368c.254.68.7,1.019,1.337,1.019h4.075c.678,0,1.146-.339,1.401-1.019l8.277-23.305h.255v32.156c0,.722.36,1.083,1.083,1.083h3.947c.722,0,1.083-.361,1.083-1.083v-38.778c0-.721-.361-1.082-1.083-1.082h-7.131c-.552,0-.871.234-.955.7h0ZM142.7569,187.279l-8.787,24.579h-.319l-8.723-24.579c-.213-.466-.552-.7-1.019-.7h-7.131c-.723,0-1.083.361-1.083,1.082v38.778c0,.722.36,1.083,1.083,1.083h3.884c.424,0,.71-.074.859-.223.149-.149.223-.435.223-.86v-32.219h.255l8.469,23.368c.254.68.7,1.019,1.337,1.019h4.075c.678,0,1.146-.339,1.401-1.019l8.277-23.305h.255v32.156c0,.722.36,1.083,1.083,1.083h3.947c.722,0,1.083-.361,1.083-1.083v-38.778c0-.721-.361-1.082-1.083-1.082h-7.131c-.552,0-.871.234-.955.7h0ZM166.7619,217.397v-20.694c0-3.141,1.528-4.712,4.584-4.712h5.54c3.098,0,4.648,1.571,4.648,4.712v20.694c0,3.142-1.55,4.712-4.648,4.712h-5.54c-3.056,0-4.584-1.57-4.584-4.712h0ZM185.1639,224.911c1.74-1.74,2.61-4.16,2.61-7.259v-21.204c0-3.141-.87-5.571-2.61-7.29-1.741-1.72-4.182-2.579-7.323-2.579h-7.386c-3.142,0-5.572.859-7.291,2.579-1.719,1.719-2.579,4.149-2.579,7.29v21.204c0,3.099.86,5.519,2.579,7.259,1.719,1.741,4.149,2.611,7.291,2.611h7.386c3.141,0,5.582-.87,7.323-2.611h0ZM202.4819,226.439v-27.3159h.255l15.282,27.38c.424.679.976,1.019,1.655,1.019h3.439c.721,0,1.082-.361,1.082-1.083v-38.778c0-.721-.361-1.082-1.082-1.082h-3.948c-.722,0-1.082.361-1.082,1.082v27.317h-.255l-15.409-27.699c-.255-.466-.723-.7-1.401-.7h-3.566c-.722,0-1.082.361-1.082,1.082v38.778c0,.722.36,1.083,1.082,1.083h3.948c.721,0,1.082-.361,1.082-1.083h0ZM252.0199,226.439l2.42-8.278h14.008l2.42,8.278c.084.425.201.711.35.86.148.149.414.223.796.223h4.521c.636,0,.869-.361.7-1.083l-11.079-38.778c-.17-.721-.68-1.082-1.528-1.082h-6.368c-.807,0-1.316.361-1.528,1.082l-11.0789,38.778c-.1711.722.041,1.083.636,1.083h4.585c.594,0,.976-.361,1.146-1.083h0ZM261.5709,192.692l5.667,20.375h-11.525l5.603-20.375h.255ZM289.7149,226.439v-14.008c0-.424.254-.637.764-.637h6.431l6.813,14.645c.296.722.955,1.083,1.974,1.083h3.948c1.018,0,1.294-.424.827-1.274l-7.067-14.9v-.255c4.032-1.273,6.049-4.35,6.049-9.232v-5.349c0-3.098-.882-5.529-2.643-7.291-1.762-1.761-4.192-2.642-7.291-2.642h-14.899c-.723,0-1.083.361-1.083,1.082v38.778c0,.722.36,1.083,1.083,1.083h4.011c.721,0,1.083-.361,1.083-1.083h0ZM289.7149,206.063v-13.435c0-.424.232-.637.7-.637h8.087c3.141,0,4.712,1.571,4.712,4.712v5.349c0,3.099-1.571,4.648-4.712,4.648h-8.087c-.468,0-.7-.212-.7-.637h0ZM341.9269,224.911c1.74-1.74,2.611-4.16,2.611-7.259v-3.056c0-.765-.382-1.147-1.146-1.147h-4.012c-.722,0-1.082.382-1.082,1.147v2.801c0,3.142-1.529,4.712-4.585,4.712h-5.54c-3.056,0-4.584-1.57-4.584-4.712v-20.694c0-3.141,1.528-4.712,4.584-4.712h5.54c3.056,0,4.585,1.571,4.585,4.712v2.802c0,.764.36,1.146,1.082,1.146h4.012c.764,0,1.146-.382,1.146-1.146v-3.057c0-3.141-.871-5.571-2.611-7.29-1.741-1.72-4.161-2.579-7.259-2.579h-7.386c-3.142,0-5.572.859-7.291,2.579-1.719,1.719-2.579,4.149-2.579,7.29v21.204c0,3.099.86,5.519,2.579,7.259,1.719,1.741,4.149,2.611,7.291,2.611h7.386c3.098,0,5.518-.87,7.259-2.611h0ZM358.6089,226.439v-16.11c0-.423.255-.636.764-.636h13.436c.424,0,.637.213.637.636v16.11c0,.722.36,1.083,1.082,1.083h4.075c.721,0,1.083-.361,1.083-1.083v-38.778c0-.721-.362-1.082-1.083-1.082h-4.075c-.722,0-1.082.361-1.082,1.082v15.919c0,.425-.213.637-.637.637h-13.436c-.509,0-.764-.212-.764-.637v-15.919c0-.721-.361-1.082-1.082-1.082h-4.012c-.722,0-1.082.361-1.082,1.082v38.778c0,.722.36,1.083,1.082,1.083h4.012c.7209,0,1.082-.361,1.082-1.083h0ZM394.3939,186.579h-4.012c-.722,0-1.082.361-1.082,1.082v38.778c0,.722.36,1.083,1.082,1.083h4.012c.721,0,1.082-.361,1.082-1.083v-38.778c0-.721-.361-1.082-1.082-1.082h0ZM417.3799,226.439v-33.811c0-.424.232-.637.7-.637h8.023c.764,0,1.146-.36,1.146-1.082v-3.248c0-.721-.382-1.082-1.146-1.082h-23.623c-.764,0-1.146.361-1.146,1.082v3.248c0,.722.382,1.082,1.146,1.082h8.023c.424,0,.637.213.637.637v33.811c0,.722.382,1.083,1.146,1.083h4.011c.722,0,1.083-.361,1.083-1.083h0ZM455.2019,226.439v-3.247c0-.722-.341-1.083-1.019-1.083h-14.518c-.509,0-.764-.233-.764-.7v-11.334c0-.424.255-.637.764-.637h12.289c.764,0,1.146-.36,1.146-1.083v-3.247c0-.721-.382-1.082-1.146-1.082h-12.289c-.509,0-.764-.212-.764-.637v-10.761c0-.424.255-.637.764-.637h14.518c.6779,0,1.019-.36,1.019-1.082v-3.248c0-.721-.341-1.082-1.019-1.082h-20.376c-.722,0-1.082.361-1.082,1.082v38.778c0,.722.36,1.083,1.082,1.083h20.376c.6779,0,1.019-.361,1.019-1.083h0ZM487.1659,224.911c1.74-1.74,2.611-4.16,2.611-7.259v-3.056c0-.765-.382-1.147-1.146-1.147h-4.012c-.722,0-1.082.382-1.082,1.147v2.801c0,3.142-1.5291,4.712-4.585,4.712h-5.54c-3.056,0-4.584-1.57-4.584-4.712v-20.694c0-3.141,1.528-4.712,4.584-4.712h5.54c3.0559,0,4.585,1.571,4.585,4.712v2.802c0,.764.36,1.146,1.082,1.146h4.012c.764,0,1.146-.382,1.146-1.146v-3.057c0-3.141-.871-5.571-2.611-7.29-1.741-1.72-4.161-2.579-7.259-2.579h-7.386c-3.142,0-5.572.859-7.291,2.579-1.719,1.719-2.579,4.149-2.579,7.29v21.204c0,3.099.86,5.519,2.579,7.259,1.7191,1.741,4.149,2.611,7.291,2.611h7.386c3.098,0,5.518-.87,7.259-2.611h0ZM509.9609,226.439v-33.811c0-.424.233-.637.7-.637h8.023c.765,0,1.147-.36,1.147-1.082v-3.248c0-.721-.382-1.082-1.147-1.082h-23.6231c-.7639,0-1.1459.361-1.1459,1.082v3.248c0,.722.382,1.082,1.1459,1.082h8.0231c.424,0,.637.213.637.637v33.811c0,.722.382,1.083,1.146,1.083h4.012c.7209,0,1.082-.361,1.082-1.083h0ZM545.6179,187.661v29.736c0,3.142-1.55,4.712-4.648,4.712h-5.2209c-3.057,0-4.585-1.57-4.585-4.712v-29.736c0-.721-.361-1.082-1.082-1.082h-4.012c-.722,0-1.0821.361-1.0821,1.082v29.991c0,3.099.8691,5.519,2.6101,7.259,1.74,1.741,4.16,2.611,7.259,2.611h7.068c3.098,0,5.529-.87,7.291-2.611,1.761-1.74,2.642-4.16,2.642-7.259v-30.054c0-.679-.382-1.019-1.1461-1.019h-4.0109c-.723,0-1.083.361-1.083,1.082h0ZM566.9489,226.439v-14.008c0-.424.254-.637.764-.637h6.431l6.813,14.645c.296.722.955,1.083,1.974,1.083h3.948c1.0179,0,1.2939-.424.827-1.274l-7.0671-14.9v-.255c4.0321-1.273,6.0491-4.35,6.0491-9.232v-5.349c0-3.098-.882-5.529-2.643-7.291-1.762-1.761-4.192-2.642-7.291-2.642h-14.899c-.723,0-1.083.361-1.083,1.082v38.778c0,.722.36,1.083,1.083,1.083h4.011c.721,0,1.083-.361,1.083-1.083h0ZM566.9489,206.063v-13.435c0-.424.2321-.637.7-.637h8.087c3.14,0,4.7111,1.571,4.7111,4.712v5.349c0,3.099-1.571,4.648-4.7111,4.648h-8.087c-.468,0-.7-.212-.7-.637h0ZM617.7599,226.439v-3.247c0-.722-.34-1.083-1.019-1.083h-14.517c-.51,0-.764-.233-.764-.7v-11.334c0-.424.254-.637.764-.637h12.289c.764,0,1.1459-.36,1.1459-1.083v-3.247c0-.721-.382-1.082-1.1459-1.082h-12.289c-.51,0-.764-.212-.764-.637v-10.761c0-.424.254-.637.764-.637h14.517c.679,0,1.019-.36,1.019-1.082v-3.248c0-.721-.34-1.082-1.019-1.082h-20.375c-.7231,0-1.0831.361-1.0831,1.082v38.778c0,.722.36,1.083,1.0831,1.083h20.375c.679,0,1.019-.361,1.019-1.083h0Z"/>
</svg>