<?xml version="1.0" encoding="UTF-8" standalone="no"?>
<!DOCTYPE svg PUBLIC "-//W3C//DTD SVG 1.1//EN"
 "http://www.w3.org/Graphics/SVG/1.1/DTD/svg11.dtd">
<!-- Generated by graphviz version 5.0.0 (20220707.1540)
 -->
<!-- Pages: 1 -->
<svg width="1303pt" height="438pt"
 viewBox="0.00 0.00 1303.00 438.00" xmlns="http://www.w3.org/2000/svg" xmlns:xlink="http://www.w3.org/1999/xlink">
<g id="graph0" class="graph" transform="scale(1 1) rotate(0) translate(4 434)">
<polygon fill="white" stroke="transparent" points="-4,4 -4,-434 1299,-434 1299,4 -4,4"/>
<g id="clust1" class="cluster">
<title>clusterinternal&#45;bank&#45;network</title>
<polygon fill="none" stroke="black" points="8,-8 8,-351.2 1287,-351.2 1287,-8 8,-8"/>
<text text-anchor="middle" x="647.5" y="-334.6" font-family="Times,serif" font-size="14.00">internal&#45;bank&#45;network</text>
</g>
<!-- traderx&#45;system -->
<g id="node1" class="node">
<title>traderx&#45;system</title>
<polygon fill="none" stroke="black" points="1064.03,-318.4 951.97,-318.4 951.97,-282.4 1064.03,-282.4 1064.03,-318.4"/>
<text text-anchor="middle" x="1008" y="-296.2" font-family="Times,serif" font-size="14.00">System: TraderX</text>
</g>
<!-- traderx&#45;trader -->
<g id="node2" class="node">
<title>traderx&#45;trader</title>
<ellipse fill="none" stroke="black" cx="629" cy="-412" rx="63.71" ry="18"/>
<text text-anchor="middle" x="629" y="-407.8" font-family="Times,serif" font-size="14.00">Actor: Trader</text>
</g>
<!-- web&#45;client -->
<g id="node3" class="node">
<title>web&#45;client</title>
<polygon fill="none" stroke="black" points="701.56,-318.4 556.44,-318.4 556.44,-282.4 701.56,-282.4 701.56,-318.4"/>
<text text-anchor="middle" x="629" y="-296.2" font-family="Times,serif" font-size="14.00">Webclient: Web Client</text>
</g>
<!-- traderx&#45;trader&#45;&gt;web&#45;client -->
<g id="edge1" class="edge">
<title>traderx&#45;trader&#45;&gt;web&#45;client</title>
<path fill="none" stroke="black" d="M574.85,-402.3C560.01,-397.16 545.55,-388.99 536.58,-376 521.68,-354.43 544.37,-335.89 570.99,-322.68"/>
<polygon fill="black" stroke="black" points="572.55,-325.82 580.12,-318.41 569.58,-319.48 572.55,-325.82"/>
<text text-anchor="middle" x="559.71" y="-363.4" font-family="Times,serif" font-size="14.00">interacts</text>
</g>
<!-- traderx&#45;trader&#45;&gt;web&#45;client -->
<g id="edge2" class="edge">
<title>traderx&#45;trader&#45;&gt;web&#45;client</title>
<path fill="none" stroke="black" d="M626.41,-393.95C625.66,-388.26 624.95,-381.87 624.58,-376 623.59,-360.32 624.53,-342.77 625.79,-328.64"/>
<polygon fill="black" stroke="black" points="629.28,-328.89 626.79,-318.59 622.32,-328.19 629.28,-328.89"/>
<text text-anchor="middle" x="647.71" y="-363.4" font-family="Times,serif" font-size="14.00">interacts</text>
</g>
<!-- traderx&#45;trader&#45;&gt;web&#45;client -->
<g id="edge3" class="edge">
<title>traderx&#45;trader&#45;&gt;web&#45;client</title>
<path fill="none" stroke="black" d="M658.57,-396.02C665.93,-390.75 672.89,-384.09 677,-376 680.38,-369.34 679.54,-366.22 677,-359.2 672.57,-346.93 664.28,-335.43 655.81,-325.96"/>
<polygon fill="black" stroke="black" points="658.17,-323.36 648.75,-318.52 653.1,-328.18 658.17,-323.36"/>
<text text-anchor="middle" x="702.71" y="-363.4" font-family="Times,serif" font-size="14.00">interacts</text>
</g>
<!-- web&#45;gui&#45;process -->
<g id="node4" class="node">
<title>web&#45;gui&#45;process</title>
<polygon fill="none" stroke="black" points="689.18,-229.6 568.82,-229.6 568.82,-193.6 689.18,-193.6 689.18,-229.6"/>
<text text-anchor="middle" x="629" y="-207.4" font-family="Times,serif" font-size="14.00">Service: Web GUI</text>
</g>
<!-- web&#45;client&#45;&gt;web&#45;gui&#45;process -->
<g id="edge4" class="edge">
<title>web&#45;client&#45;&gt;web&#45;gui&#45;process</title>
<path fill="none" stroke="black" d="M629,-282.25C629,-270.12 629,-253.62 629,-239.72"/>
<polygon fill="black" stroke="black" points="632.5,-239.71 629,-229.71 625.5,-239.71 632.5,-239.71"/>
<text text-anchor="middle" x="678.38" y="-251.8" font-family="Times,serif" font-size="14.00">connects HTTPS </text>
</g>
<!-- position&#45;service -->
<g id="node5" class="node">
<title>position&#45;service</title>
<polygon fill="none" stroke="black" points="172.25,-140.8 15.75,-140.8 15.75,-104.8 172.25,-104.8 172.25,-140.8"/>
<text text-anchor="middle" x="94" y="-118.6" font-family="Times,serif" font-size="14.00">Service: Position Service</text>
</g>
<!-- web&#45;gui&#45;process&#45;&gt;position&#45;service -->
<g id="edge5" class="edge">
<title>web&#45;gui&#45;process&#45;&gt;position&#45;service</title>
<path fill="none" stroke="black" d="M568.62,-205.44C507.52,-199.79 410.45,-189.63 327.23,-175.6 275.14,-166.82 217.15,-153.95 172.02,-143.24"/>
<polygon fill="black" stroke="black" points="172.55,-139.77 162.01,-140.85 170.93,-146.58 172.55,-139.77"/>
<text text-anchor="middle" x="376.38" y="-163" font-family="Times,serif" font-size="14.00">connects HTTPS </text>
</g>
<!-- web&#45;gui&#45;process&#45;&gt;position&#45;service -->
<g id="edge6" class="edge">
<title>web&#45;gui&#45;process&#45;&gt;position&#45;service</title>
<path fill="none" stroke="black" d="M568.85,-209.04C445.59,-205.44 172.73,-195.34 135.23,-175.6 124.06,-169.72 114.89,-159.35 108.05,-149.43"/>
<polygon fill="black" stroke="black" points="110.98,-147.5 102.66,-140.94 105.07,-151.26 110.98,-147.5"/>
<text text-anchor="middle" x="184.38" y="-163" font-family="Times,serif" font-size="14.00">connects HTTPS </text>
</g>
<!-- reference&#45;data&#45;service -->
<g id="node7" class="node">
<title>reference&#45;data&#45;service</title>
<polygon fill="none" stroke="black" points="862.51,-52 665.49,-52 665.49,-16 862.51,-16 862.51,-52"/>
<text text-anchor="middle" x="764" y="-29.8" font-family="Times,serif" font-size="14.00">Service: Reference Data Service</text>
</g>
<!-- web&#45;gui&#45;process&#45;&gt;reference&#45;data&#45;service -->
<g id="edge9" class="edge">
<title>web&#45;gui&#45;process&#45;&gt;reference&#45;data&#45;service</title>
<path fill="none" stroke="black" d="M627.3,-193.52C625.38,-163.88 626.15,-102.95 660,-70 665.26,-64.88 671.28,-60.52 677.73,-56.78"/>
<polygon fill="black" stroke="black" points="679.5,-59.81 686.75,-52.08 676.26,-53.6 679.5,-59.81"/>
<text text-anchor="middle" x="686.38" y="-118.6" font-family="Times,serif" font-size="14.00">connects HTTPS </text>
</g>
<!-- trading&#45;services -->
<g id="node8" class="node">
<title>trading&#45;services</title>
<polygon fill="none" stroke="black" points="924.11,-140.8 763.89,-140.8 763.89,-104.8 924.11,-104.8 924.11,-140.8"/>
<text text-anchor="middle" x="844" y="-118.6" font-family="Times,serif" font-size="14.00">Service: Trading Services</text>
</g>
<!-- web&#45;gui&#45;process&#45;&gt;trading&#45;services -->
<g id="edge10" class="edge">
<title>web&#45;gui&#45;process&#45;&gt;trading&#45;services</title>
<path fill="none" stroke="black" d="M671.22,-193.55C705.91,-179.55 755.19,-159.65 792.25,-144.69"/>
<polygon fill="black" stroke="black" points="793.91,-147.8 801.88,-140.81 791.29,-141.3 793.91,-147.8"/>
<text text-anchor="middle" x="804.38" y="-163" font-family="Times,serif" font-size="14.00">connects HTTPS </text>
</g>
<!-- trade&#45;feed -->
<g id="node9" class="node">
<title>trade&#45;feed</title>
<polygon fill="none" stroke="black" points="624.22,-52 495.78,-52 495.78,-16 624.22,-16 624.22,-52"/>
<text text-anchor="middle" x="560" y="-29.8" font-family="Times,serif" font-size="14.00">Service: Trade Feed</text>
</g>
<!-- web&#45;gui&#45;process&#45;&gt;trade&#45;feed -->
<g id="edge11" class="edge">
<title>web&#45;gui&#45;process&#45;&gt;trade&#45;feed</title>
<path fill="none" stroke="black" d="M568.63,-202.07C531.52,-193.37 486.77,-175.88 463.49,-140.8 454.64,-127.47 453.33,-117.16 463.49,-104.8 489.82,-72.79 527.16,-117.51 555,-86.8 560.87,-80.33 563.02,-71.36 563.42,-62.69"/>
<polygon fill="black" stroke="black" points="566.91,-62.39 563.17,-52.47 559.91,-62.55 566.91,-62.39"/>
<text text-anchor="middle" x="523.26" y="-118.6" font-family="Times,serif" font-size="14.00">connects WebSocket </text>
</g>
<!-- accounts&#45;service -->
<g id="node11" class="node">
<title>accounts&#45;service</title>
<polygon fill="none" stroke="black" points="1067.72,-52 904.28,-52 904.28,-16 1067.72,-16 1067.72,-52"/>
<text text-anchor="middle" x="986" y="-29.8" font-family="Times,serif" font-size="14.00">Service: Accounts Service</text>
</g>
<!-- web&#45;gui&#45;process&#45;&gt;accounts&#45;service -->
<g id="edge14" class="edge">
<title>web&#45;gui&#45;process&#45;&gt;accounts&#45;service</title>
<path fill="none" stroke="black" d="M689.14,-210.85C756.68,-208.26 866.68,-195.08 942,-140.8 968.29,-121.85 979.33,-117.03 991,-86.8 993.94,-79.18 994.18,-70.48 993.26,-62.42"/>
<polygon fill="black" stroke="black" points="996.67,-61.59 991.52,-52.33 989.77,-62.78 996.67,-61.59"/>
<text text-anchor="middle" x="1031.38" y="-118.6" font-family="Times,serif" font-size="14.00">connects HTTPS </text>
</g>
<!-- people&#45;service -->
<g id="node12" class="node">
<title>people&#45;service</title>
<polygon fill="none" stroke="black" points="1279.45,-140.8 1130.55,-140.8 1130.55,-104.8 1279.45,-104.8 1279.45,-140.8"/>
<text text-anchor="middle" x="1205" y="-118.6" font-family="Times,serif" font-size="14.00">Service: People Service</text>
</g>
<!-- web&#45;gui&#45;process&#45;&gt;people&#45;service -->
<g id="edge15" class="edge">
<title>web&#45;gui&#45;process&#45;&gt;people&#45;service</title>
<path fill="none" stroke="black" d="M689.14,-208.03C763.89,-204.14 895.12,-195.05 1006,-175.6 1051.03,-167.7 1100.8,-154.74 1139.31,-143.77"/>
<polygon fill="black" stroke="black" points="1140.71,-147 1149.35,-140.87 1138.77,-140.28 1140.71,-147"/>
<text text-anchor="middle" x="1132.38" y="-163" font-family="Times,serif" font-size="14.00">connects HTTPS </text>
</g>
<!-- traderx&#45;db -->
<g id="node6" class="node">
<title>traderx&#45;db</title>
<polygon fill="none" stroke="black" points="255.56,-52 110.44,-52 110.44,-16 255.56,-16 255.56,-52"/>
<text text-anchor="middle" x="183" y="-29.8" font-family="Times,serif" font-size="14.00">Database: TraderX DB</text>
</g>
<!-- position&#45;service&#45;&gt;traderx&#45;db -->
<g id="edge7" class="edge">
<title>position&#45;service&#45;&gt;traderx&#45;db</title>
<path fill="none" stroke="black" d="M63.16,-104.58C49.54,-94.74 38.49,-82.01 47.79,-70 55.06,-60.6 76.58,-53.27 100.37,-47.8"/>
<polygon fill="black" stroke="black" points="101.27,-51.19 110.3,-45.65 99.79,-44.35 101.27,-51.19"/>
<text text-anchor="middle" x="93.11" y="-74.2" font-family="Times,serif" font-size="14.00">connects JDBC </text>
</g>
<!-- position&#45;service&#45;&gt;traderx&#45;db -->
<g id="edge8" class="edge">
<title>position&#45;service&#45;&gt;traderx&#45;db</title>
<path fill="none" stroke="black" d="M120.8,-104.79C128.34,-99.45 136.3,-93.26 143,-86.8 151.19,-78.91 159.08,-69.28 165.66,-60.47"/>
<polygon fill="black" stroke="black" points="168.51,-62.51 171.54,-52.36 162.84,-58.41 168.51,-62.51"/>
<text text-anchor="middle" x="202.11" y="-74.2" font-family="Times,serif" font-size="14.00">connects JDBC </text>
</g>
<!-- trading&#45;services&#45;&gt;reference&#45;data&#45;service -->
<g id="edge17" class="edge">
<title>trading&#45;services&#45;&gt;reference&#45;data&#45;service</title>
<path fill="none" stroke="black" d="M822.96,-104.72C816.63,-99.24 809.83,-92.98 804.02,-86.8 796.43,-78.73 788.82,-69.29 782.3,-60.7"/>
<polygon fill="black" stroke="black" points="784.96,-58.41 776.19,-52.47 779.34,-62.59 784.96,-58.41"/>
<text text-anchor="middle" x="831.99" y="-74.2" font-family="Times,serif" font-size="14.00">connects &#160;</text>
</g>
<!-- trading&#45;services&#45;&gt;trade&#45;feed -->
<g id="edge18" class="edge">
<title>trading&#45;services&#45;&gt;trade&#45;feed</title>
<path fill="none" stroke="black" d="M784.73,-104.79C765.35,-99.15 743.74,-92.79 724.02,-86.8 690.5,-76.62 653.26,-64.89 622.75,-55.17"/>
<polygon fill="black" stroke="black" points="623.68,-51.8 613.09,-52.09 621.56,-58.47 623.68,-51.8"/>
<text text-anchor="middle" x="751.99" y="-74.2" font-family="Times,serif" font-size="14.00">connects &#160;</text>
</g>
<!-- trading&#45;services&#45;&gt;accounts&#45;service -->
<g id="edge19" class="edge">
<title>trading&#45;services&#45;&gt;accounts&#45;service</title>
<path fill="none" stroke="black" d="M872.05,-104.65C894.23,-91.1 925.35,-72.07 949.46,-57.33"/>
<polygon fill="black" stroke="black" points="951.3,-60.32 958,-52.11 947.65,-54.34 951.3,-60.32"/>
<text text-anchor="middle" x="954.99" y="-74.2" font-family="Times,serif" font-size="14.00">connects &#160;</text>
</g>
<!-- trade&#45;processor -->
<g id="node10" class="node">
<title>trade&#45;processor</title>
<polygon fill="none" stroke="black" points="363.95,-140.8 208.05,-140.8 208.05,-104.8 363.95,-104.8 363.95,-140.8"/>
<text text-anchor="middle" x="286" y="-118.6" font-family="Times,serif" font-size="14.00">Service: Trade Processor</text>
</g>
<!-- trade&#45;processor&#45;&gt;traderx&#45;db -->
<g id="edge13" class="edge">
<title>trade&#45;processor&#45;&gt;traderx&#45;db</title>
<path fill="none" stroke="black" d="M279.24,-104.65C274.19,-93.62 266.38,-79.6 256,-70 250.68,-65.08 244.54,-60.72 238.13,-56.9"/>
<polygon fill="black" stroke="black" points="239.72,-53.78 229.27,-52.01 236.34,-59.91 239.72,-53.78"/>
<text text-anchor="middle" x="314.11" y="-74.2" font-family="Times,serif" font-size="14.00">connects JDBC </text>
</g>
<!-- trade&#45;processor&#45;&gt;trade&#45;feed -->
<g id="edge12" class="edge">
<title>trade&#45;processor&#45;&gt;trade&#45;feed</title>
<path fill="none" stroke="black" d="M335.46,-104.78C365.86,-94.45 405.65,-81.15 441.14,-70 457.12,-64.98 474.37,-59.78 490.64,-54.97"/>
<polygon fill="black" stroke="black" points="492.02,-58.21 500.63,-52.03 490.04,-51.5 492.02,-58.21"/>
<text text-anchor="middle" x="495.43" y="-74.2" font-family="Times,serif" font-size="14.00">connects SocketIO </text>
</g>
<!-- user&#45;directory -->
<g id="node13" class="node">
<title>user&#45;directory</title>
<polygon fill="none" stroke="black" points="1253.73,-52 1118.27,-52 1118.27,-16 1253.73,-16 1253.73,-52"/>
<text text-anchor="middle" x="1186" y="-29.8" font-family="Times,serif" font-size="14.00">Ldap: User Directory</text>
</g>
<!-- people&#45;service&#45;&gt;user&#45;directory -->
<g id="edge16" class="edge">
<title>people&#45;service&#45;&gt;user&#45;directory</title>
<path fill="none" stroke="black" d="M1201.25,-104.65C1198.59,-92.52 1194.98,-76.02 1191.94,-62.12"/>
<polygon fill="black" stroke="black" points="1195.3,-61.13 1189.75,-52.11 1188.47,-62.63 1195.3,-61.13"/>
<text text-anchor="middle" x="1243.27" y="-74.2" font-family="Times,serif" font-size="14.00">connects LDAP </text>
</g>
</g>
</svg>
