<?xml version="1.0" encoding="UTF-8"?>
<svg id="Layer_1" xmlns="http://www.w3.org/2000/svg" version="1.1" viewBox="0 0 506.0539 540">
  <!-- Generator: Adobe Illustrator 29.2.1, SVG Export Plug-In . SVG Version: 2.1.0 Build 116)  -->
  <path d="M62.7557,396.326c4.4542-4.454,6.6832-10.648,6.6832-18.582v-7.824c0-1.956-.978-2.934-2.934-2.934h-10.2693c-1.849,0-2.771.978-2.771,2.934v7.172c0,8.043-3.9121,12.062-11.7362,12.062h-14.1811c-7.8241,0-11.7361-4.019-11.7361-12.062v-52.975c0-8.041,3.912-12.063,11.7361-12.063h14.1811c7.8241,0,11.7362,4.022,11.7362,12.063v7.172c0,1.956.922,2.934,2.771,2.934h10.2693c1.956,0,2.934-.978,2.934-2.934v-7.824c0-8.041-2.229-14.263-6.6832-18.664-4.4571-4.401-10.6512-6.602-18.5822-6.602h-18.9082c-8.0432,0-14.2627,2.201-18.6638,6.602-4.401,4.401-6.6015,10.623-6.6015,18.664v54.279c0,7.934,2.2005,14.128,6.6015,18.582,4.4011,4.457,10.6206,6.683,18.6638,6.683h18.9082c7.931,0,14.1251-2.226,18.5822-6.683h0ZM98.2889,400.238l6.194-21.19h35.861l6.194,21.19c.216,1.088.514,1.821.896,2.201.38.382,1.06.57,2.038.57h11.573c1.63,0,2.226-.922,1.793-2.771l-28.362-99.268c-.436-1.846-1.74-2.771-3.913-2.771h-16.3c-2.065,0-3.369.925-3.912,2.771l-28.362,99.268c-.436,1.849.107,2.771,1.63,2.771h11.736c1.521,0,2.499-.922,2.934-2.771h0ZM122.7389,313.8469l14.508,52.161h-29.504l14.344-52.161h.652ZM237.3279,400.238v-8.476c0-1.956-.925-2.934-2.771-2.934h-37.817c-1.304,0-1.956-.542-1.956-1.63v-86.228c0-1.846-.924-2.771-2.771-2.771h-10.269c-1.849,0-2.771.925-2.771,2.771v99.268c0,1.849.922,2.771,2.771,2.771h52.813c1.846,0,2.771-.922,2.771-2.771h0ZM321.5989,299.992l-22.494,62.919h-.815l-22.331-62.919c-.545-1.194-1.414-1.793-2.608-1.793h-18.256c-1.849,0-2.771.925-2.771,2.771v99.268c0,1.849.922,2.771,2.771,2.771h9.943c1.085,0,1.818-.188,2.2-.57.38-.38.571-1.113.571-2.201v-82.479h.652l21.679,59.822c.652,1.74,1.793,2.608,3.423,2.608h10.432c1.737,0,2.934-.868,3.586-2.608l21.19-59.659h.652v82.316c0,1.849.922,2.771,2.771,2.771h10.107c1.846,0,2.771-.922,2.771-2.771v-99.268c0-1.846-.925-2.771-2.771-2.771h-18.257c-1.413,0-2.228.599-2.445,1.793h0Z"/>
  <path d="M19.1951,539.113v-2.712c0-.626-.2958-.939-.8867-.939H6.2071c-.4173,0-.6259-.174-.6259-.522v-27.592c0-.591-.2959-.887-.8867-.887H1.4083c-.5917,0-.8867.296-.8867.887v31.765c0,.592.295.887.8867.887h16.9001c.5909,0,.8867-.295.8867-.887h0ZM26.7582,539.113l1.9821-6.781h11.4754l1.9821,6.781c.0692.348.1646.583.2869.704.1214.123.339.183.652.183h3.7034c.5216,0,.7123-.295.5737-.887l-9.0759-31.765c-.1394-.591-.5567-.887-1.2519-.887h-5.216c-.661,0-1.0783.296-1.2519.887l-9.0759,31.765c-.1394.592.0342.887.5216.887h3.7555c.4866,0,.7996-.295.9389-.887h0ZM34.5823,511.468l4.6423,16.692h-9.4411l4.5902-16.692h.2086ZM57.5846,539.113v-22.377h.2086l12.5187,22.429c.347.557.799.835,1.356.835h2.817c.591,0,.886-.295.886-.887v-31.765c0-.591-.295-.887-.886-.887h-3.234c-.592,0-.887.296-.887.887v22.376h-.209l-12.6225-22.689c-.2086-.383-.5917-.574-1.1475-.574h-2.921c-.5917,0-.8868.296-.8868.887v31.765c0,.592.2951.887.8868.887h3.2339c.5909,0,.8868-.295.8868-.887h0ZM102.0769,537.861c1.426-1.425,2.139-3.407,2.139-5.946v-8.763c0-.73-.365-1.0949-1.096-1.0949h-8.763c-.591,0-.886.296-.886.8869v2.66c0,.591.295.886.886.886h4.225c.383,0,.574.175.574.522v4.6949c0,2.5731-1.252,3.859-3.755,3.859h-4.121c-2.504,0-3.756-1.2859-3.756-3.859v-16.9529c0-2.573,1.252-3.86,3.756-3.86h4.121c2.503,0,3.755,1.2871,3.755,3.86v1.6689c0,.6261.295.939.887.939h3.286c.591,0,.887-.313.887-.939v-1.8769c0-2.573-.704-4.5641-2.113-5.9731-1.408-1.408-3.399-2.112-5.972-2.112h-5.581c-2.574,0-4.564.7039-5.973,2.112-1.408,1.409-2.112,3.4001-2.112,5.9731v17.3689c0,2.5391.704,4.5211,2.112,5.946,1.409,1.4271,3.399,2.139,5.973,2.139h5.581c2.538,0,4.52-.7119,5.946-2.139h0ZM127.9489,507.348v24.3589c0,2.5731-1.27,3.859-3.808,3.859h-4.277c-2.504,0-3.756-1.2859-3.756-3.859v-24.3589c0-.591-.295-.887-.886-.887h-3.286c-.592,0-.887.296-.887.887v24.567c0,2.5391.712,4.5211,2.138,5.946,1.426,1.4271,3.408,2.139,5.947,2.139h5.79c2.537,0,4.529-.7119,5.972-2.139,1.443-1.425,2.165-3.407,2.165-5.946v-24.62c0-.555-.313-.834-.939-.834h-3.286c-.592,0-.887.296-.887.887h0ZM143.1269,539.113l1.982-6.781h11.476l1.982,6.781c.069.348.164.583.287.704.121.123.339.183.652.183h3.703c.522,0,.712-.295.574-.887l-9.076-31.765c-.14-.591-.557-.887-1.252-.887h-5.216c-.661,0-1.078.296-1.252.887l-9.076,31.765c-.139.592.034.887.522.887h3.755c.487,0,.8-.295.939-.887h0ZM150.9509,511.468l4.643,16.692h-9.442l4.591-16.692h.208ZM188.0369,537.861c1.425-1.425,2.138-3.407,2.138-5.946v-8.763c0-.73-.365-1.0949-1.095-1.0949h-8.763c-.592,0-.887.296-.887.8869v2.66c0,.591.295.886.887.886h4.225c.382,0,.574.175.574.522v4.6949c0,2.5731-1.252,3.859-3.756,3.859h-4.12c-2.504,0-3.756-1.2859-3.756-3.859v-16.9529c0-2.573,1.252-3.86,3.756-3.86h4.12c2.504,0,3.756,1.2871,3.756,3.86v1.6689c0,.6261.295.939.887.939h3.286c.591,0,.886-.313.886-.939v-1.8769c0-2.573-.704-4.5641-2.112-5.9731-1.408-1.408-3.399-2.112-5.972-2.112h-5.582c-2.573,0-4.564.7039-5.972,2.112-1.408,1.409-2.113,3.4001-2.113,5.9731v17.3689c0,2.5391.705,4.5211,2.113,5.946,1.408,1.4271,3.399,2.139,5.972,2.139h5.582c2.537,0,4.52-.7119,5.946-2.139h0ZM215.6819,539.113v-2.66c0-.591-.279-.887-.835-.887h-11.892c-.418,0-.626-.19-.626-.573v-9.285c0-.347.208-.522.626-.522h10.067c.626,0,.939-.295.939-.886v-2.661c0-.59-.313-.886-.939-.886h-10.067c-.418,0-.626-.174-.626-.5219v-8.815c0-.347.208-.522.626-.522h11.892c.556,0,.835-.295.835-.886v-2.66c0-.591-.279-.887-.835-.887h-16.691c-.592,0-.887.296-.887.887v31.765c0,.592.295.887.887.887h16.691c.556,0,.835-.295.835-.887h0ZM256.8879,507.035l-7.198,20.133h-.261l-7.146-20.133c-.174-.383-.452-.574-.834-.574h-5.842c-.592,0-.887.296-.887.887v31.765c0,.592.295.887.887.887h3.181c.348,0,.582-.06.705-.183.121-.121.182-.356.182-.704v-26.393h.209l6.937,19.143c.209.557.5739.835,1.096.835h3.338c.556,0,.939-.278,1.147-.835l6.781-19.091h.209v26.341c0,.592.295.887.887.887h3.234c.59,0,.886-.295.886-.887v-31.765c0-.591-.296-.887-.886-.887h-5.842c-.453,0-.714.191-.783.574h0ZM276.5519,531.7069v-16.9529c0-2.573,1.252-3.86,3.756-3.86h4.538c2.538,0,3.808,1.2871,3.808,3.86v16.9529c0,2.5731-1.27,3.859-3.808,3.859h-4.538c-2.504,0-3.756-1.2859-3.756-3.859h0ZM291.6269,537.861c1.425-1.425,2.138-3.407,2.138-5.946v-17.3689c0-2.573-.713-4.5641-2.138-5.9731-1.426-1.408-3.426-2.112-5.999-2.112h-6.05c-2.574,0-4.564.7039-5.973,2.112-1.4081,1.409-2.112,3.4001-2.112,5.9731v17.3689c0,2.5391.7039,4.5211,2.112,5.946,1.409,1.4271,3.399,2.139,5.973,2.139h6.05c2.573,0,4.573-.7119,5.999-2.139h0ZM305.8659,534.993v-23.577c0-.347.191-.522.574-.522h7.354c2.504,0,3.756,1.2871,3.756,3.86v16.9529c0,2.5731-1.252,3.859-3.756,3.859h-7.354c-.383,0-.574-.19-.574-.573h0ZM301.6929,540h12.832c2.538,0,4.529-.7119,5.972-2.139,1.443-1.425,2.165-3.407,2.165-5.946v-17.3689c0-2.573-.722-4.5641-2.165-5.9731-1.443-1.408-3.4341-2.112-5.972-2.112h-12.832c-.592,0-.887.296-.887.887v31.765c0,.592.295.887.887.887h0ZM348.1679,539.113v-2.66c0-.591-.279-.887-.835-.887h-11.892c-.418,0-.626-.19-.626-.573v-9.285c0-.347.208-.522.626-.522h10.067c.626,0,.939-.295.939-.886v-2.661c0-.59-.313-.886-.939-.886h-10.067c-.418,0-.626-.174-.626-.5219v-8.815c0-.347.208-.522.626-.522h11.892c.556,0,.835-.295.835-.886v-2.66c0-.591-.279-.887-.835-.887h-16.691c-.592,0-.887.296-.887.887v31.765c0,.592.295.887.887.887h16.691c.556,0,.835-.295.835-.887h0ZM373.4659,539.113v-2.712c0-.626-.296-.939-.887-.939h-12.101c-.418,0-.626-.174-.626-.522v-27.592c0-.591-.296-.887-.887-.887h-3.286c-.592,0-.887.296-.887.887v31.765c0,.592.295.887.887.887h16.9c.591,0,.887-.295.887-.887h0Z"/>
  <path d="M20.0818,482.441c1.4255-1.4259,2.1386-3.4079,2.1386-5.946v-2.504c0-.626-.3129-.939-.9389-.939h-3.2861c-.5917,0-.8867.3129-.8867.939v2.295c0,2.574-1.2519,3.86-3.7556,3.86h-4.538c-2.5037,0-3.7555-1.286-3.7555-3.86v-16.952c0-2.573,1.2518-3.86,3.7555-3.86h4.538c2.5037,0,3.7556,1.287,3.7556,3.86v2.295c0,.626.295.939.8867.939h3.2861c.626,0,.9389-.313.9389-.939v-2.504c0-2.573-.7131-4.564-2.1386-5.972-1.4262-1.409-3.4083-2.113-5.9463-2.113h-6.0506c-2.5738,0-4.5641.704-5.9724,2.113-1.4083,1.408-2.1125,3.399-2.1125,5.972v17.37c0,2.5381.7042,4.5201,2.1125,5.946,1.4083,1.4261,3.3986,2.138,5.9724,2.138h6.0506c2.538,0,4.5201-.712,5.9463-2.138h0ZM33.226,476.286v-16.952c0-2.573,1.2518-3.86,3.7555-3.86h4.538c2.5379,0,3.8077,1.287,3.8077,3.86v16.952c0,2.574-1.2698,3.86-3.8077,3.86h-4.538c-2.5037,0-3.7555-1.286-3.7555-3.86h0ZM48.3004,482.441c1.4254-1.4259,2.1385-3.4079,2.1385-5.946v-17.37c0-2.573-.7131-4.564-2.1385-5.972-1.4263-1.409-3.4255-2.113-5.9985-2.113h-6.0506c-2.5738,0-4.5641.704-5.9724,2.113-1.4084,1.408-2.1125,3.399-2.1125,5.972v17.37c0,2.5381.7041,4.5201,2.1125,5.946,1.4083,1.4261,3.3986,2.138,5.9724,2.138h6.0506c2.573,0,4.5722-.712,5.9985-2.138h0ZM79.6479,451.614l-7.198,20.1339h-.261l-7.146-20.1339c-.174-.382-.452-.574-.834-.574h-5.8422c-.5917,0-.8868.296-.8868.887v31.766c0,.591.2951.886.8868.886h3.1818c.3471,0,.5819-.06.7041-.1821.1215-.1219.1826-.356.1826-.7039v-26.394h.2086l6.9371,19.143c.209.557.574.835,1.096.835h3.338c.556,0,.939-.278,1.147-.835l6.781-19.09h.209v26.341c0,.591.295.886.887.886h3.234c.591,0,.886-.295.886-.886v-31.766c0-.591-.295-.887-.886-.887h-5.842c-.453,0-.713.192-.783.574h0ZM116.9429,451.614l-7.198,20.1339h-.261l-7.146-20.1339c-.174-.382-.452-.574-.835-.574h-5.842c-.591,0-.886.296-.886.887v31.766c0,.591.295.886.886.886h3.182c.347,0,.582-.06.704-.1821.122-.1219.183-.356.183-.7039v-26.394h.209l6.937,19.143c.209.557.574.835,1.095.835h3.339c.555,0,.938-.278,1.147-.835l6.781-19.09h.209v26.341c0,.591.295.886.886.886h3.234c.591,0,.887-.295.887-.886v-31.766c0-.591-.296-.887-.887-.887h-5.842c-.452,0-.713.192-.782.574h0ZM136.6069,476.286v-16.952c0-2.573,1.252-3.86,3.756-3.86h4.538c2.538,0,3.808,1.287,3.808,3.86v16.952c0,2.574-1.27,3.86-3.808,3.86h-4.538c-2.504,0-3.756-1.286-3.756-3.86h0ZM151.6819,482.441c1.425-1.4259,2.138-3.4079,2.138-5.946v-17.37c0-2.573-.713-4.564-2.138-5.972-1.427-1.409-3.426-2.113-5.999-2.113h-6.05c-2.574,0-4.564.704-5.973,2.113-1.408,1.408-2.112,3.399-2.112,5.972v17.37c0,2.5381.704,4.5201,2.112,5.946,1.409,1.4261,3.399,2.138,5.973,2.138h6.05c2.573,0,4.572-.712,5.999-2.138h0ZM165.8689,483.693v-22.377h.208l12.519,22.429c.347.5561.799.834,1.356.834h2.817c.591,0,.886-.295.886-.886v-31.766c0-.591-.295-.887-.886-.887h-3.234c-.592,0-.887.296-.887.887v22.377h-.209l-12.622-22.69c-.209-.382-.592-.574-1.148-.574h-2.921c-.592,0-.887.296-.887.887v31.766c0,.591.295.886.887.886h3.234c.591,0,.887-.295.887-.886h0ZM206.4489,483.693l1.982-6.781h11.475l1.982,6.781c.07.348.165.582.287.7039.122.122.339.1821.652.1821h3.704c.521,0,.712-.295.573-.886l-9.076-31.766c-.139-.591-.556-.887-1.251-.887h-5.217c-.66,0-1.078.296-1.251.887l-9.076,31.766c-.14.591.034.886.521.886h3.756c.486,0,.799-.295.939-.886h0ZM214.2729,456.048l4.642,16.691h-9.441l4.59-16.691h.209ZM237.3269,483.693v-11.476c0-.347.209-.521.626-.521h5.268l5.582,11.997c.242.591.782.886,1.617.886h3.234c.834,0,1.06-.347.678-1.043l-5.79-12.205v-.209c3.303-1.043,4.955-3.564,4.955-7.563v-4.3819c0-2.5381-.722-4.5291-2.165-5.972-1.443-1.443-3.434-2.165-5.972-2.165h-12.206c-.591,0-.886.296-.886.887v31.766c0,.591.295.886.886.886h3.287c.59,0,.886-.295.886-.886h0ZM237.3269,467.001v-11.006c0-.347.191-.521.574-.521h6.624c2.573,0,3.86,1.287,3.86,3.86v4.381c0,2.539-1.287,3.808-3.86,3.808h-6.624c-.383,0-.574-.174-.574-.522h0ZM280.0989,482.441c1.425-1.4259,2.138-3.4079,2.138-5.946v-2.504c0-.626-.313-.939-.939-.939h-3.286c-.592,0-.887.3129-.887.939v2.295c0,2.574-1.251,3.86-3.755,3.86h-4.538c-2.504,0-3.756-1.286-3.756-3.86v-16.952c0-2.573,1.252-3.86,3.756-3.86h4.538c2.504,0,3.755,1.287,3.755,3.86v2.295c0,.626.295.939.887.939h3.286c.626,0,.939-.313.939-.939v-2.504c0-2.573-.713-4.564-2.138-5.972-1.427-1.409-3.409-2.113-5.947-2.113h-6.05c-2.5739,0-4.564.704-5.973,2.113-1.408,1.408-2.112,3.399-2.112,5.972v17.37c0,2.5381.704,4.5201,2.112,5.946,1.409,1.4261,3.399,2.138,5.973,2.138h6.05c2.538,0,4.52-.712,5.947-2.138h0ZM293.7639,483.693v-13.197c0-.347.209-.522.626-.522h11.006c.347,0,.522.175.522.522v13.197c0,.591.295.886.886.886h3.3391c.591,0,.886-.295.886-.886v-31.766c0-.591-.295-.887-.886-.887h-3.3391c-.591,0-.886.296-.886.887v13.04c0,.348-.175.522-.522.522h-11.006c-.417,0-.626-.174-.626-.522v-13.04c0-.591-.296-.887-.886-.887h-3.287c-.591,0-.886.296-.886.887v31.766c0,.591.295.886.886.886h3.287c.59,0,.886-.295.886-.886h0ZM323.0779,451.04h-3.286c-.5919,0-.887.296-.887.887v31.766c0,.591.295.886.887.886h3.286c.591,0,.887-.295.887-.886v-31.766c0-.591-.296-.887-.887-.887h0ZM341.9069,483.693v-27.698c0-.347.1909-.521.5739-.521h6.572c.626,0,.939-.295.939-.887v-2.66c0-.591-.313-.887-.939-.887h-19.351c-.626,0-.939.296-.939.887v2.66c0,.5919.313.887.939.887h6.572c.347,0,.522.174.522.521v27.698c0,.591.313.886.939.886h3.286c.591,0,.886-.295.886-.886h0ZM372.8899,483.693v-2.661c0-.59-.278-.886-.834-.886h-11.893c-.417,0-.626-.1909-.626-.574v-9.285c0-.347.209-.521.626-.521h10.067c.626,0,.939-.295.939-.887v-2.66c0-.591-.313-.887-.939-.887h-10.067c-.417,0-.626-.173-.626-.521v-8.816c0-.347.209-.521.626-.521h11.893c.556,0,.834-.295.834-.887v-2.66c0-.591-.278-.887-.834-.887h-16.692c-.591,0-.886.296-.886.887v31.766c0,.591.295.886.886.886h16.692c.556,0,.834-.295.834-.886h0ZM399.0749,482.441c1.425-1.4259,2.138-3.4079,2.138-5.946v-2.504c0-.626-.313-.939-.939-.939h-3.286c-.591,0-.886.3129-.886.939v2.295c0,2.574-1.252,3.86-3.756,3.86h-4.538c-2.504,0-3.755-1.286-3.755-3.86v-16.952c0-2.573,1.251-3.86,3.755-3.86h4.538c2.504,0,3.756,1.287,3.756,3.86v2.295c0,.626.295.939.886.939h3.286c.626,0,.939-.313.939-.939v-2.504c0-2.573-.713-4.564-2.138-5.972-1.427-1.409-3.4091-2.113-5.947-2.113h-6.05c-2.574,0-4.564.704-5.973,2.113-1.4081,1.408-2.112,3.399-2.112,5.972v17.37c0,2.5381.704,4.5201,2.112,5.946,1.409,1.4261,3.399,2.138,5.973,2.138h6.05c2.538,0,4.52-.712,5.947-2.138h0ZM417.7479,483.693v-27.698c0-.347.191-.521.574-.521h6.572c.626,0,.939-.295.939-.887v-2.66c0-.591-.313-.887-.939-.887h-19.352c-.626,0-.939.296-.939.887v2.66c0,.5919.313.887.939.887h6.573c.347,0,.521.174.521.521v27.698c0,.591.313.886.939.886h3.286c.591,0,.887-.295.887-.886h0ZM446.9569,451.927v24.359c0,2.574-1.269,3.86-3.807,3.86h-4.278c-2.503,0-3.755-1.286-3.755-3.86v-24.359c0-.591-.296-.887-.887-.887h-3.286c-.592,0-.887.296-.887.887v24.568c0,2.5381.713,4.5201,2.139,5.946,1.425,1.4261,3.407,2.138,5.946,2.138h5.79c2.538,0,4.529-.712,5.972-2.138,1.443-1.4259,2.165-3.4079,2.165-5.946v-24.62c0-.556-.313-.835-.939-.835h-3.286c-.592,0-.887.296-.887.887h0ZM464.4309,483.693v-11.476c0-.347.208-.521.626-.521h5.268l5.581,11.997c.243.591.782.886,1.617.886h3.2339c.835,0,1.0601-.347.678-1.043l-5.79-12.205v-.209c3.303-1.043,4.955-3.564,4.955-7.563v-4.3819c0-2.5381-.722-4.5291-2.164-5.972-1.444-1.443-3.4349-2.165-5.973-2.165h-12.205c-.5919,0-.887.296-.887.887v31.766c0,.591.295.886.887.886h3.2861c.591,0,.887-.295.887-.886h0ZM464.4309,467.001v-11.006c0-.347.19-.521.573-.521h6.625c2.5729,0,3.86,1.287,3.86,3.86v4.381c0,2.539-1.287,3.808-3.86,3.808h-6.625c-.383,0-.573-.174-.573-.522h0ZM506.0539,483.693v-2.661c0-.59-.278-.886-.8341-.886h-11.8929c-.4171,0-.6261-.1909-.6261-.574v-9.285c0-.347.209-.521.6261-.521h10.067c.626,0,.939-.295.939-.887v-2.66c0-.591-.313-.887-.939-.887h-10.067c-.4171,0-.6261-.173-.6261-.521v-8.816c0-.347.209-.521.6261-.521h11.8929c.5561,0,.8341-.295.8341-.887v-2.66c0-.591-.278-.887-.8341-.887h-16.692c-.5909,0-.8859.296-.8859.887v31.766c0,.591.295.886.8859.886h16.692c.5561,0,.8341-.295.8341-.886h0Z"/>
  <path d="M45.5037,184.039l.0029.003c.1397.14,42.6043,41.81,42.6043,41.81,19.024,18.349,49.631,18.265,68.543-.262l-20.904-20.475c-7.46,7.307-19.551,7.307-27.011,0l-42.288-41.5c-7.0843-7.333-7.0026-18.88.33-26.063l47.907-46.929-20.899-20.473-48.1781,47.194c-18.5895,18.496-18.5948,48.139-.1071,66.695h0Z"/>
  <path d="M172.9309,91.9l-48.178-47.1939c-19.025-18.3494-49.631-18.2647-68.543.2605L13.9827,86.338c-18.7317,18.636-18.644,48.616.2681,67.141l20.9018-20.475c-7.4593-7.306-7.4575-19.153.0012-26.461l42.4131-41.348-.064-.063c7.483-6.955,19.283-6.8769,26.621.312l47.907,46.929,20.9-20.473h0Z"/>
  <path d="M230.2929,86.07l-20.903,20.476c7.46,7.307,7.461,19.154.002,26.461l-41.77,41.29-.192-.189c-7.46,7.306-19.552,7.306-27.012-.002l-47.906-46.929-20.9,20.474,48.18,47.195c18.901,18.231,49.213,18.222,68.152.048l42.617-41.68c18.732-18.637,18.645-48.618-.268-67.144h0Z"/>
  <path d="M199.0139,55.5107l-.002-.0026c-.14-.1402-42.605-41.8101-42.605-41.8101-19.024-18.3496-49.631-18.265-68.543.262l20.904,20.4751c7.459-7.3072,19.551-7.3072,27.011,0l42.288,41.5009c7.084,7.331,7.002,18.879-.33,26.062l-47.908,46.929,20.9,20.473,48.178-47.194c18.59-18.496,18.595-48.139.107-66.6953h0Z"/>
</svg>